P3
8 8
255
0 0 0
3 0 0
0 0 0
11 0 0
15 0 0
19 0 0
23 0 0
27 0 0
31 0 0
0 0 0
0 0 0
0 0 0
47 0 0
51 0 0
55 0 0
59 0 0
0 0 0
0 0 0
0 0 0
0 0 0
0 0 0
83 0 0
87 0 0
91 0 0
95 0 0
0 0 0
0 0 0
0 0 0
111 0 0
115 0 0
119 0 0
123 0 0
127 0 0
131 0 0
0 0 0
139 0 0
143 0 0
147 0 0
151 0 0
155 0 0
159 0 0
163 0 0
167 0 0
171 0 0
175 0 0
179 0 0
183 0 0
187 0 0
191 0 0
195 0 0
199 0 0
203 0 0
207 0 0
211 0 0
215 0 0
219 0 0
223 0 0
227 0 0
231 0 0
235 0 0
239 0 0
243 0 0
247 0 0
251 0 0
