# Blender 4.5.1 LTS
# www.blender.org
mtllib dk-scaled.mtl
o 10
v -0.077738 0.451406 0.551000
v 0.000917 0.471052 0.560822
v 0.020564 0.471052 0.560822
v 0.099217 0.451406 0.551000
v 0.118864 0.431759 0.501882
v -0.097385 0.431759 0.501882
v -0.087560 0.530060 0.541175
v 0.109042 0.530060 0.541175
v 0.138511 0.500590 0.501882
v -0.117032 0.500590 0.501882
v -0.107207 0.461229 0.501882
v 0.128688 0.461229 0.501882
v 0.000917 0.500590 0.551000
v 0.020564 0.500590 0.551000
v -0.018730 0.520236 0.551000
v 0.040211 0.520236 0.551000
v 0.109042 0.461229 0.551000
v 0.040211 0.500590 0.560822
v 0.109042 0.500590 0.551000
v -0.087560 0.461229 0.551000
v -0.018730 0.500590 0.560822
v -0.087560 0.500590 0.551000
vn 0.3982 -0.3982 0.8264
vn 0.6992 -0.3783 0.6067
vn 0.6643 -0.2364 0.7091
vn -0.0129 0.2815 0.9595
vn 0.4664 0.0869 0.8803
vn -0.1056 0.2880 0.9518
vn 0.4200 0.3759 0.8260
vn -0.0730 0.4808 0.8738
vn 0.0250 0.4189 0.9077
vn -0.1742 0.2100 0.9621
vn 0.8202 -0.0320 0.5711
vn 0.7363 -0.2139 0.6420
vn 0.5959 -0.0327 0.8024
vn -0.6644 -0.2363 0.7091
vn -0.6992 -0.3783 0.6066
vn -0.3982 -0.3982 0.8264
vn 0.1732 0.2741 0.9460
vn 0.1056 0.2881 0.9518
vn -0.0261 0.5603 0.8278
vn 0.0734 0.3325 0.9402
vn -0.3503 0.4475 0.8228
vn -0.4664 0.0869 0.8803
vn 0.0142 0.4299 0.9027
vn -0.8202 -0.0320 0.5712
vn -0.7363 -0.2139 0.6420
vn 0.1056 0.2880 0.9518
vn -0.6321 -0.0241 0.7745
vn -0.3503 0.4474 0.8228
vn 0.0141 0.4300 0.9027
vt 0.242662 0.666956
vt 0.253617 0.594004
vt 0.251765 0.701286
vt 0.199889 0.725604
vt 0.251765 0.835271
vt 0.209475 0.837655
vt 0.248059 0.932541
vt 0.213664 0.892966
vt 0.200131 0.830980
vt 0.268358 0.823351
vt 0.263928 0.688413
vt 0.208106 0.701286
vt 0.206253 0.594004
vt 0.217208 0.666956
vt 0.259739 0.830980
vt 0.250395 0.837655
vt 0.259981 0.725604
vt 0.246206 0.892966
vt 0.211811 0.932541
vt 0.208106 0.835271
vt 0.191512 0.823351
vt 0.195942 0.688413
s 1
usemtl dk
f 4/1/1 5/2/2 17/3/3
f 3/4/4 19/5/5 18/6/6
f 18/6/6 8/7/7 16/8/8
f 3/4/9 18/6/6 14/9/10
f 17/3/3 9/10/11 19/5/5
f 17/3/3 12/11/12 9/10/11
f 3/4/4 17/3/3 19/5/5
f 19/5/5 9/10/11 8/7/13
f 18/6/6 16/8/8 14/9/10
f 18/6/6 19/5/5 8/7/7
f 5/2/2 12/11/12 17/3/3
f 17/3/3 3/4/4 4/1/1
f 20/12/14 6/13/15 1/14/16
f 13/15/17 21/16/18 2/17/19
f 15/18/20 7/19/21 21/16/18
f 22/20/22 20/12/14 2/17/23
f 22/20/22 10/21/24 20/12/14
f 10/21/24 11/22/25 20/12/14
f 21/16/26 22/20/22 2/17/23
f 7/19/27 10/21/24 22/20/22
f 13/15/17 15/18/20 21/16/18
f 7/19/28 22/20/22 21/16/26
f 20/12/14 11/22/25 6/13/15
f 1/14/16 2/17/29 20/12/14
o 11
v 0.010740 0.372818 0.659124
v -0.107207 0.264694 0.708242
v 0.118864 0.264694 0.708242
v 0.069680 0.461229 0.639477
v -0.058023 0.461229 0.639477
vn -0.0017 0.3751 0.9270
vn 0.3039 0.4009 0.8642
vn 0.1305 0.8039 0.5802
vn -0.1514 0.7535 0.6398
vn -0.3056 0.4020 0.8631
vn -0.0016 0.3751 0.9270
vt 0.310968 0.434056
vt 0.405448 -0.247439
vt 0.360990 0.947322
vt 0.370119 0.947322
vt 0.407738 -0.247439
s 1
usemtl dk
f 23/23/30 25/24/31 26/25/32
f 27/26/33 24/27/34 23/23/35
o 12
v 0.207276 -0.336006 0.221949
v 0.010740 -0.539290 0.221682
v -0.185795 -0.336006 0.221949
v -0.136678 -0.201485 0.222283
v 0.158158 -0.201485 0.222283
v -0.097385 -0.066964 0.224420
v 0.118864 -0.066964 0.224420
v -0.048201 0.070631 0.224420
v 0.069680 0.074306 0.220813
vn -0.0000 -0.0020 1.0000
vn -0.0000 -0.0013 1.0000
vn -0.0000 -0.0070 1.0000
vn -0.0000 -0.0114 0.9999
vn -0.0000 -0.0106 0.9999
vn 0.0098 0.0066 0.9999
vn 0.0147 0.0179 0.9997
vn 0.0294 0.0358 0.9989
vt 0.655226 0.499732
vt 0.704218 0.167978
vt 0.785244 0.377616
vt 0.680559 0.664775
vt 0.781057 0.570585
vt 0.705998 0.829403
vt 0.776765 0.763135
vt 0.731331 0.994446
vt 0.772577 0.956103
s 1
usemtl dk
f 30/28/36 29/29/37 28/30/36
f 28/30/36 31/31/38 30/28/36
f 28/30/36 32/32/39 31/31/38
f 32/32/39 33/33/40 31/31/38
f 32/32/39 34/34/41 33/33/40
f 34/34/41 35/35/42 33/33/40
f 34/34/41 36/36/43 35/35/42
o 13
v 0.197451 0.644266 0.063571
v 0.010740 0.644266 0.043924
v -0.175972 0.644266 0.063571
v 0.266282 0.575502 0.122579
v -0.244803 0.575502 0.122579
v 0.197451 0.408436 0.201166
v -0.175972 0.408436 0.201166
v 0.344870 0.555855 0.024277
v 0.236745 0.575502 -0.054378
v -0.048201 0.074306 0.220813
v -0.117032 0.143070 0.220813
v -0.077738 0.211901 0.240460
v 0.305576 0.369143 0.171695
v 0.138511 0.143070 0.220813
v 0.099217 0.211901 0.240460
v -0.323390 0.555855 0.024277
v -0.215266 0.575502 -0.054378
v -0.284097 0.369143 0.171695
v 0.069680 0.074306 0.220813
v -0.244803 0.575502 0.122579
v -0.284097 0.369143 0.171695
v -0.323390 0.555855 0.024277
v 0.010740 0.585325 -0.074025
vn 0.3582 0.8998 -0.2492
vn 0.8819 0.2843 0.3762
vn 0.5937 0.8018 0.0673
vn 0.2301 0.9087 -0.3482
vn -0.0622 -0.1749 0.9826
vn -0.2270 -0.4007 0.8877
vn -0.0883 -0.1593 0.9833
vn 0.0627 -0.1314 0.9893
vn 0.2269 -0.4007 0.8877
vn 0.4915 0.0619 0.8687
vn -0.5063 0.8615 -0.0389
vn -0.9023 0.2827 0.3254
vn -0.3578 0.9002 -0.2482
vn -0.1886 0.9063 -0.3781
vn 0.4650 -0.1572 0.8713
vn -0.4009 0.0031 0.9161
vn 0.0588 -0.1535 0.9864
vn -0.3822 -0.0885 0.9198
vn -0.5439 0.7966 0.2639
vn -0.3579 0.1716 0.9179
vn -0.7761 0.2820 0.5641
vn -0.0241 0.8350 -0.5497
vn -0.0000 0.8937 -0.4486
vt 0.961093 0.963920
vt 0.968367 0.837204
vt 0.999438 0.857075
vt 0.978599 0.893268
vt 0.944283 0.684554
vt 0.924708 0.569795
vt 0.944216 0.601283
vt 0.964246 0.683637
vt 0.994946 0.564428
vt 0.986083 0.659249
vt 0.917550 0.803746
vt 0.936840 0.847106
vt 0.945945 0.967521
vt 0.951033 0.855802
vt 0.965136 0.763936
vt 0.922650 0.680444
vt 0.964586 0.598498
vt 0.944397 0.753899
vt 0.963006 0.900588
vt 0.956648 0.950520
vt 0.981568 0.518267
vt 0.927200 0.815924
vt 0.932032 0.520542
vt 0.984129 0.813308
s 1
usemtl dk
f 37/37/44 40/38/45 44/39/46
f 37/37/44 44/39/46 45/40/47
f 48/41/48 47/42/49 46/43/50
f 51/44/51 50/45/52 49/46/53
f 52/47/54 41/48/55 39/49/56
f 53/50/57 52/47/54 39/49/56
f 42/51/58 51/44/51 49/46/53
f 54/52/59 47/42/49 48/41/48
f 55/53/60 50/45/52 51/44/51
f 54/52/59 43/54/61 41/48/55
f 54/52/59 48/41/48 43/54/61
f 40/38/45 42/51/58 49/46/53
f 58/47/62 57/52/63 56/48/64
f 40/38/45 49/46/53 44/39/46
f 59/55/65 39/49/56 38/56/66
f 59/55/65 53/50/57 39/49/56
f 37/37/44 59/55/65 38/56/66
f 37/37/44 45/40/47 59/55/65
f 55/57/60 48/58/48 46/59/50
f 55/57/60 51/60/51 48/58/48
o 5
v -0.254625 0.227472 0.358807
v -0.225156 0.227472 0.555344
v -0.185795 0.138994 0.466934
v 0.266282 0.227472 0.358807
v 0.197451 0.138994 0.466934
v 0.236745 0.227472 0.555344
v -0.117032 0.217648 0.702762
v -0.077738 0.119347 0.594705
v 0.010740 0.207825 0.751945
v 0.079505 0.119347 0.594705
v 0.128688 0.217648 0.702762
v 0.128688 0.247118 0.712586
v 0.226923 0.256942 0.555344
v -0.215266 0.256942 0.555344
v -0.117032 0.247118 0.712586
v 0.010740 0.247118 0.742123
v 0.010740 0.099700 0.407925
v 0.010740 0.148817 0.309691
v -0.244803 0.384713 0.437462
v 0.256460 0.384713 0.437462
v 0.285929 0.333458 0.354464
v 0.217098 0.294164 0.246339
v 0.256460 0.382642 0.433051
v -0.205441 0.294164 0.246339
v -0.274272 0.333458 0.354464
v -0.244803 0.382642 0.433051
v 0.010740 0.372818 0.659124
v 0.010740 0.264694 0.737712
v -0.107207 0.264694 0.708242
v 0.118864 0.264694 0.708242
v 0.069680 0.461229 0.639477
v -0.058023 0.461229 0.639477
v -0.077738 0.451406 0.551000
v 0.000917 0.471052 0.560822
v 0.187629 0.431759 0.541175
v 0.020564 0.471052 0.560822
v -0.175972 0.431759 0.541175
v 0.099217 0.451406 0.551000
v 0.148335 0.412112 0.482235
v 0.118864 0.431759 0.501882
v -0.097385 0.431759 0.501882
v -0.126854 0.412112 0.482235
v -0.195619 0.500590 0.334817
v -0.244803 0.421935 0.334817
v 0.256460 0.421935 0.334817
v 0.217098 0.294164 0.246339
v 0.285929 0.333458 0.354464
v 0.256460 0.421935 0.334817
v 0.285929 0.333458 0.354464
v 0.256460 0.382642 0.433051
v -0.205441 0.274517 0.570647
v -0.244803 0.382642 0.433051
v 0.256460 0.382642 0.433051
v 0.256460 0.421935 0.334817
v -0.205441 0.294164 0.246339
v 0.010740 0.372818 0.246339
v -0.195619 0.500590 0.334817
v 0.217098 0.274517 0.570647
v 0.217098 0.294164 0.246339
v 0.256460 0.421935 0.334817
v 0.217098 0.500590 0.334817
v 0.217098 0.294164 0.246339
v 0.010740 0.372818 0.246339
v -0.205441 0.294164 0.246339
v -0.244803 0.421935 0.334817
v -0.274272 0.333458 0.354464
v -0.205441 0.294164 0.246339
v 0.217098 0.294164 0.246339
v 0.217098 0.500590 0.334817
v 0.010740 0.372818 0.246339
v -0.244803 0.421935 0.334817
v -0.205441 0.294164 0.246339
v -0.195619 0.500590 0.334817
v -0.244803 0.421935 0.334817
v -0.244803 0.382642 0.433051
v -0.274272 0.333458 0.354464
v 0.217098 0.500590 0.334817
v 0.167982 0.598824 0.570647
v 0.138511 0.539883 0.570647
v 0.010740 0.510413 0.590294
v 0.207276 0.618471 0.501882
v 0.010740 0.559530 0.619830
v -0.136678 0.598824 0.570647
v -0.048201 0.608647 0.580469
v 0.148335 0.667655 0.452698
v 0.187629 0.628294 0.423229
v 0.217098 0.618471 0.442875
v -0.117032 0.539883 0.570647
v -0.087560 0.530060 0.541175
v -0.185795 0.618471 0.501882
v -0.136678 0.579177 0.472413
v -0.175972 0.520236 0.433051
v -0.166148 0.628294 0.423229
v -0.195619 0.618471 0.442875
v -0.185795 0.539883 0.462588
v 0.069680 0.608647 0.580469
v 0.158158 0.579177 0.472413
v 0.207276 0.539883 0.462588
v -0.126854 0.667655 0.452698
v 0.109042 0.530060 0.541175
v 0.197451 0.520236 0.433051
v -0.215266 0.559530 0.256164
v -0.225156 0.598824 0.295457
v -0.254625 0.598824 0.285633
v -0.175972 0.461229 0.393757
v -0.225156 0.441582 0.334817
v -0.205441 0.579177 0.364288
v -0.205441 0.451406 0.393757
v -0.225156 0.598824 0.295457
v -0.205441 0.579177 0.364288
v -0.264450 0.579177 0.354464
v -0.215266 0.490699 0.265986
v -0.254625 0.598824 0.285633
v 0.276107 0.598824 0.285633
v 0.246635 0.598824 0.295457
v 0.236745 0.559530 0.256164
v -0.264450 0.579177 0.354464
v 0.246635 0.441582 0.334817
v 0.226923 0.451406 0.393757
v 0.197451 0.461229 0.393757
v 0.236745 0.490699 0.265986
v 0.226923 0.579177 0.364288
v 0.285929 0.579177 0.354464
v 0.226923 0.579177 0.364288
v 0.276107 0.598824 0.285633
v 0.246635 0.598824 0.295457
v 0.285929 0.579177 0.354464
v 0.197451 0.408436 0.201166
v -0.175972 0.408436 0.201166
v -0.117032 0.143070 0.220813
v -0.077738 0.211901 0.240460
v 0.305576 0.369143 0.171695
v 0.138511 0.143070 0.220813
v 0.099217 0.211901 0.240460
v -0.284097 0.369143 0.171695
v 0.504518 -0.677153 0.136745
v 0.583105 -0.677153 0.107276
v 0.573281 -0.809869 -0.057851
v 0.347275 -0.588742 -0.040144
v 0.435687 -0.809869 -0.057851
v 0.504518 -0.819693 -0.038139
v 0.622399 -0.790222 -0.077498
v 0.671583 -0.588742 -0.040144
v 0.366922 -0.677153 0.067982
v 0.376747 -0.800046 -0.077498
v 0.642114 -0.677153 0.067982
v 0.425863 -0.677153 0.107276
v 0.325759 -0.518842 -0.060859
v 0.659956 -0.450078 -0.031389
v 0.424058 -0.558202 0.145566
v 0.502714 -0.558202 0.165213
v 0.581301 -0.558202 0.145566
v 0.650066 -0.558202 0.096382
v 0.365118 -0.548379 0.096382
v 0.591125 -0.391137 0.116029
v 0.335581 -0.440254 0.037441
v 0.424058 -0.391137 0.096382
v 0.256994 -0.558202 -0.051036
v 0.384765 -0.361600 -0.100152
v 0.630419 -0.381247 -0.080505
v 0.315934 -0.391137 -0.021499
v 0.217700 -0.528665 -0.021499
v 0.607028 -0.326249 0.142961
v 0.380957 -0.326249 0.103667
v 0.616853 -0.336073 -0.073222
v 0.390779 -0.316426 -0.112516
v 0.158158 0.005475 0.083218
v 0.354694 0.211901 0.083218
v 0.246635 0.035013 -0.054378
v -0.136678 0.005475 0.083218
v 0.010740 0.074306 0.132401
v -0.225156 0.035013 -0.054378
v -0.333213 0.211901 0.083218
v 0.158158 -0.083336 -0.298425
v 0.010740 -0.132453 -0.219772
v -0.136678 -0.083336 -0.298425
v -0.414206 -0.809869 -0.067676
v -0.355265 -0.800046 -0.087323
v -0.325796 -0.588742 -0.049967
v -0.650104 -0.588742 -0.040144
v -0.551802 -0.809869 -0.067676
v -0.483037 -0.819693 -0.038139
v -0.620632 -0.677153 0.058158
v -0.561624 -0.677153 0.107276
v -0.600918 -0.790222 -0.087323
v -0.404383 -0.677153 0.107276
v -0.483037 -0.677153 0.126923
v -0.345443 -0.677153 0.058158
v -0.343639 -0.558202 0.096382
v -0.402579 -0.558202 0.135743
v -0.559820 -0.558202 0.135743
v -0.481232 -0.558202 0.165213
v -0.638475 -0.450078 -0.031389
v -0.628585 -0.558202 0.096382
v -0.304277 -0.518842 -0.060859
v -0.569644 -0.391137 0.116029
v -0.608938 -0.381247 -0.090330
v -0.196220 -0.528665 -0.031389
v -0.363285 -0.361600 -0.109977
v -0.235514 -0.558202 -0.051036
v -0.314102 -0.440254 0.027619
v -0.294455 -0.391137 -0.021499
v -0.402579 -0.391137 0.086560
v -0.369300 -0.316426 -0.112516
v -0.595371 -0.336073 -0.073222
v -0.359475 -0.326249 0.103667
v -0.585549 -0.326249 0.133136
v 0.281988 -0.791893 -0.027111
v 0.468700 -0.782003 -0.066405
v 0.458875 -0.782003 -0.194176
v 0.439228 -0.673945 -0.115589
v 0.124745 -0.782003 -0.046758
v 0.134570 -0.664122 -0.095942
v 0.262341 -0.644475 -0.086120
v 0.380288 -0.664122 -0.223648
v 0.409759 -0.693592 -0.390780
v 0.350818 -0.772179 -0.518484
v 0.095276 -0.782003 -0.194176
v 0.134570 -0.762356 -0.341596
v 0.055982 -0.782003 -0.321950
v 0.046158 -0.693592 -0.371066
v 0.311457 -0.664122 -0.528308
v 0.134570 -0.693592 -0.508661
v 0.242694 -0.762356 -0.538131
v 0.114923 -0.683768 -0.380890
v 0.232870 -0.644475 -0.174529
v 0.105098 -0.782003 -0.479190
v 0.006798 -0.782003 -0.390780
v 0.095276 -0.654298 -0.430074
v 0.152010 -0.603176 -0.430875
v 0.191371 -0.583529 -0.322750
v 0.230665 -0.573706 -0.479993
v 0.328899 -0.593353 -0.352221
v 0.319075 -0.583529 -0.440699
v 0.260134 -0.573706 -0.303103
v 0.158158 -0.083336 -0.298425
v 0.089395 -0.191461 -0.249241
v -0.083619 -0.782003 -0.479190
v -0.329337 -0.772179 -0.518484
v -0.113088 -0.762356 -0.341596
v -0.024678 -0.693592 -0.371066
v -0.093441 -0.683768 -0.380890
v -0.260506 -0.791893 -0.027111
v -0.240859 -0.644475 -0.086120
v -0.103266 -0.782003 -0.046758
v -0.289978 -0.664122 -0.528308
v -0.221213 -0.762356 -0.538131
v -0.073795 -0.782003 -0.194176
v -0.437396 -0.782003 -0.194176
v -0.211390 -0.644475 -0.174529
v -0.113088 -0.664122 -0.095942
v 0.014683 -0.782003 -0.390780
v -0.034501 -0.782003 -0.321950
v -0.388278 -0.693592 -0.390780
v -0.358808 -0.664122 -0.223648
v -0.073795 -0.654298 -0.430074
v -0.113088 -0.693592 -0.508661
v -0.417749 -0.673945 -0.115589
v -0.447218 -0.782003 -0.066405
v -0.307418 -0.593353 -0.352221
v -0.238655 -0.573706 -0.303103
v -0.209184 -0.573706 -0.479993
v -0.297595 -0.583529 -0.440699
v -0.130530 -0.603176 -0.430875
v -0.169890 -0.583529 -0.322750
v -0.067913 -0.191461 -0.249241
v -0.136678 -0.083336 -0.298425
v -0.067913 -0.191461 -0.249241
v 0.089395 -0.191461 -0.249241
v 0.010740 -0.132453 -0.219772
v 0.010740 -0.250401 -0.426196
v 0.010740 -0.132453 -0.219772
vn -0.5089 -0.8575 -0.0760
vn -0.8713 -0.2428 0.4265
vn -0.8576 -0.4866 -0.1666
vn 0.8679 -0.2506 0.4288
vn 0.5453 -0.8376 0.0339
vn 0.7970 -0.5635 -0.2173
vn -0.3014 -0.8843 0.3566
vn -0.5069 -0.3880 0.7698
vn 0.2943 -0.8876 0.3543
vn 0.0622 -0.4530 0.8894
vn 0.5562 -0.5276 0.6421
vn 0.6084 0.0063 0.7936
vn 0.5807 0.2633 0.7703
vn 0.3312 0.7829 0.5267
vn -0.6358 0.2661 0.7246
vn -0.4033 0.7897 0.4624
vn -0.6669 -0.0837 0.7404
vn -0.5068 -0.3879 0.7698
vn -0.1114 0.0553 0.9922
vn -0.6669 -0.0836 0.7404
vn -0.0714 0.7241 0.6860
vn 0.5807 0.2633 0.7704
vn -0.0715 0.7241 0.6860
vn 0.0622 -0.4530 0.8893
vn 0.0653 -0.9759 -0.2084
vn -0.0499 -0.7903 -0.6106
vn -0.5609 0.5023 0.6581
vn 0.7341 0.3810 0.5621
vn 0.4495 -0.4937 -0.7445
vn 0.9826 -0.1834 -0.0304
vn 0.8921 -0.1479 0.4270
vn -0.4458 -0.4965 -0.7448
vn -0.9826 -0.1834 -0.0304
vn -0.8921 -0.1479 0.4270
vn -0.3056 0.4021 0.8631
vn 0.0088 0.5879 0.8089
vn -0.0016 0.3751 0.9270
vn 0.3039 0.4009 0.8642
vn 0.1305 0.8039 0.5802
vn -0.1514 0.7535 0.6398
vn 0.0474 0.8707 0.4895
vn -0.1952 0.9699 -0.1459
vn 0.5467 0.8232 0.1534
vn 0.0250 0.4189 0.9077
vn -0.0261 0.5603 0.8279
vn 0.1305 0.8040 0.5802
vn -0.5439 0.8264 0.1460
vn 0.2105 0.9696 -0.1245
vn -0.0468 0.7098 0.7029
vn 0.2189 0.8974 -0.3831
vn 0.3174 0.9482 -0.0123
vn -0.1996 0.8949 -0.3992
vn -0.2965 0.9550 -0.0108
vn -0.5079 0.8134 0.2835
vn -0.7857 0.2130 0.5808
vn -0.9233 -0.0339 0.3825
vn 0.8103 0.1437 -0.5681
vn 0.9305 0.3401 0.1361
vn -0.8395 0.4214 0.3430
vn -0.8242 0.2497 0.5083
vn -0.6427 0.7439 0.1832
vn 0.5258 0.8034 0.2794
vn 0.5468 0.8231 0.1535
vn 0.8395 0.4215 0.3429
vn -0.1439 0.3956 -0.9071
vn 0.6475 0.7375 0.1920
vn 0.8242 0.2497 0.5083
vn 0.8395 0.4214 0.3430
vn 0.6186 0.3095 -0.7222
vn -0.0000 -0.0000 -1.0000
vn -0.8395 0.4215 0.3429
vn -0.5439 0.8263 0.1460
vn -0.8103 0.1437 -0.5681
vn -0.3536 0.9352 -0.0191
vn 0.1485 0.3896 -0.9089
vn -0.5583 0.3491 -0.7526
vn -0.9305 0.3401 0.1361
vn 0.5258 0.8034 0.2795
vn 0.3587 0.9334 -0.0093
vn 0.9268 -0.0556 0.3715
vn 0.7898 0.2013 0.5793
vn -0.0030 -0.6310 0.7758
vn 0.6025 -0.6907 0.3999
vn 0.4388 0.1246 0.8899
vn 0.4475 -0.1383 0.8835
vn 0.6037 -0.7539 0.2592
vn 0.8594 -0.0124 0.5112
vn -0.0028 -0.7629 0.6465
vn -0.0085 0.1672 0.9859
vn -0.4355 -0.0858 0.8961
vn -0.2547 0.5747 0.7778
vn -0.4245 0.1582 0.8915
vn -0.0086 0.1671 0.9859
vn 0.9001 0.3269 -0.2880
vn 0.8746 0.4843 -0.0200
vn 0.6843 0.6167 0.3891
vn -0.4244 0.1581 0.8916
vn -0.5127 -0.5448 0.6636
vn -0.8465 -0.5264 0.0800
vn -0.6899 -0.7177 0.0949
vn -0.6244 -0.7734 0.1091
vn -0.7386 -0.6023 0.3030
vn -0.6058 -0.2952 0.7388
vn -0.9001 0.3269 -0.2881
vn -0.8746 0.4844 -0.0200
vn -0.9806 -0.1940 -0.0279
vn -0.7506 -0.0914 0.6544
vn -0.6070 -0.2937 0.7384
vn -0.6639 -0.3075 0.6817
vn 0.1671 0.5246 0.8348
vn 0.5816 0.7401 0.3376
vn 0.2165 0.5037 0.8363
vn 0.0282 -0.2093 0.9775
vn 0.6619 -0.3223 0.6768
vn 0.6674 -0.4497 0.5935
vn -0.8696 0.0507 0.4912
vn -0.5934 -0.6855 0.4219
vn -0.4244 0.1582 0.8915
vn -0.2547 0.5747 0.7777
vn -0.7112 0.5599 0.4251
vn -0.4001 0.3435 0.8497
vn -0.6843 0.6167 0.3891
vn -0.0027 -0.7629 0.6465
vn -0.5934 -0.6855 0.4218
vn -0.6898 -0.7177 0.0949
vn -0.7505 -0.0914 0.6545
vn -0.9412 -0.1929 0.2775
vn -0.6059 -0.2952 0.7387
vn -0.6184 -0.2633 0.7404
vn -0.0281 -0.2092 0.9775
vn -0.7112 0.5599 0.4252
vn -0.6448 0.4328 0.6301
vn 0.2165 0.5038 0.8363
vn -0.9409 0.1563 0.3003
vn -0.9001 0.3268 -0.2881
vn 0.2589 -0.9491 -0.1796
vn -0.0052 -0.9399 0.3414
vn -0.3846 -0.9058 -0.1777
vn 0.9806 -0.1940 -0.0279
vn 0.9412 -0.1929 0.2775
vn 0.7544 -0.1011 0.6486
vn 0.7388 0.5460 0.3950
vn 0.6725 0.4167 0.6117
vn 0.6036 -0.7540 0.2592
vn 0.7215 -0.5398 0.4337
vn 0.7439 -0.5347 0.4008
vn 0.6079 -0.7938 0.0157
vn 0.6771 -0.7173 0.1644
vn 0.7215 -0.5397 0.4336
vn 0.6639 -0.3074 0.6817
vn 0.4981 -0.1152 0.8595
vn 0.7544 -0.1012 0.6485
vn 0.6772 -0.7172 0.1644
vn 0.9412 -0.1928 0.2775
vn 0.8782 0.3380 0.3385
vn -0.9729 -0.2303 -0.0216
vn -0.2769 0.3835 -0.8811
vn 0.2205 0.7169 -0.6614
vn 0.2828 0.3106 -0.9075
vn 0.9729 -0.2303 -0.0217
vn 0.7209 -0.6508 -0.2381
vn 0.8954 -0.2960 -0.3327
vn 0.6096 -0.7492 -0.2590
vn -0.4408 0.0562 0.8959
vn -0.0747 0.2241 0.9717
vn -0.1175 0.2232 0.9677
vn 0.4562 -0.8807 -0.1276
vn -0.3993 -0.8733 0.2791
vn -0.0676 0.9592 0.2744
vn -0.0477 0.9568 0.2868
vn 0.9411 -0.2444 -0.2335
vn 0.7165 0.4110 -0.5637
vn -0.0873 0.9611 0.2619
vn -0.2828 0.3106 -0.9075
vn -0.2205 0.7169 -0.6614
vn 0.2768 0.3834 -0.8811
vn -0.4407 0.0561 0.8959
vn -0.1176 0.2232 0.9677
vn -0.6240 -0.0484 0.7799
vn -0.6138 -0.6535 -0.4430
vn -0.8158 -0.4612 -0.3491
vn -0.8756 -0.4383 -0.2033
vn -0.6137 -0.6535 -0.4430
vn -0.2543 -0.7630 -0.5943
vn -0.9411 -0.2444 -0.2335
vn 0.1175 0.2232 0.9677
vn 0.0747 0.2241 0.9717
vn 0.4408 0.0562 0.8959
vn 0.0723 0.9561 0.2840
vn 0.0447 0.9623 0.2683
vn 0.0998 0.9489 0.2994
vn 0.6241 -0.0484 0.7799
vn -0.7165 0.4110 -0.5637
vn 0.3444 -0.7454 0.5708
vn 0.4288 -0.4738 0.7692
vn 0.0922 -0.5449 0.8334
vn -0.0004 0.1351 -0.9908
vn 0.3181 0.2014 -0.9264
vn 0.1581 0.0439 -0.9865
vn -0.1914 0.1358 -0.9721
vn -0.4482 0.2675 -0.8530
vn -0.3740 0.2380 -0.8964
vn -0.0784 -0.7770 0.6246
vn -0.7657 -0.5159 0.3841
vn -0.7835 -0.3987 0.4766
vn -0.9722 -0.2338 -0.0145
vn 0.8232 -0.3702 0.4305
vn 0.7930 -0.5284 0.3032
vn 0.9775 -0.0955 0.1883
vn -0.3259 -0.7419 0.5860
vn -0.3488 -0.5311 0.7722
vn -0.0005 0.1351 -0.9908
vn -0.0354 -0.0210 -0.9992
vn 0.3405 0.2095 -0.9166
vn 0.4145 -0.2431 -0.8770
vn -0.1373 -0.3794 -0.9150
vn 0.1087 -0.2412 -0.9644
vn -0.0689 -0.0451 0.9966
vn -0.4196 0.0265 0.9073
vn 0.7948 -0.0339 0.6060
vn 0.4041 -0.1008 0.9092
vn -0.8162 0.0162 0.5775
vn -0.9763 -0.1790 0.1213
vn -0.5490 -0.3927 -0.7378
vn -0.5066 -0.1843 -0.8423
vn 0.9560 0.1999 0.2145
vn 0.9722 0.0028 -0.2342
vn 0.3039 0.1834 0.9349
vn -0.6884 0.0916 0.7195
vn -0.5690 0.2572 0.7811
vn -0.4439 0.3796 0.8117
vn 0.2956 -0.6914 0.6592
vn 0.4618 -0.8587 -0.2221
vn 0.1241 -0.2187 -0.9679
vn -0.4293 -0.1474 -0.8910
vn 0.3549 -0.2865 -0.8899
vn -0.0232 -0.5703 -0.8211
vn -0.2801 -0.0573 -0.9582
vn 0.4200 0.1276 0.8985
vn -0.7631 0.5411 -0.3535
vn -0.6541 0.7040 0.2767
vn -0.5569 -0.0805 0.8267
vn -0.3726 -0.1168 0.9206
vn 0.2955 -0.6914 0.6593
vn -0.8246 0.4838 -0.2931
vn -0.6236 0.0799 -0.7777
vn 0.9560 0.2000 0.2144
vn -0.7924 0.2147 0.5710
vn -0.6584 0.3429 -0.6700
vn -0.6235 0.0800 -0.7777
vn -0.2802 -0.0573 -0.9582
vn 0.9565 0.2264 -0.1840
vn 0.5744 0.2554 0.7777
vn 0.5963 0.0400 0.8018
vn 0.9888 -0.0125 -0.1485
vn 0.7177 -0.1065 0.6882
vn -0.6647 0.0413 0.7460
vn -0.7145 -0.2403 0.6570
vn -0.5794 -0.1087 -0.8078
vn 0.8597 -0.0204 0.5104
vn 0.6835 0.0068 -0.7299
vn 0.3230 0.0597 0.9445
vn -0.7146 -0.2403 0.6570
vn -0.3536 -0.0847 -0.9316
vn 0.5568 -0.2116 0.8033
vn -0.7145 -0.2403 0.6571
vn -0.7779 -0.0541 -0.6261
vn -0.9005 0.3244 -0.2896
vn 0.5462 -0.0137 -0.8376
vn -0.3537 -0.0847 -0.9315
vn 0.6835 0.0067 -0.7299
vn -0.3822 -0.0885 0.9198
vn -0.0621 -0.1749 0.9826
vn 0.0626 -0.1314 0.9893
vn 0.7603 -0.6410 0.1053
vn 0.7195 -0.5270 0.4523
vn 0.3487 -0.8162 0.4607
vn -0.0000 -0.6884 0.7253
vn -0.2269 -0.4008 0.8876
vn -0.3487 -0.8162 0.4607
vn 0.4650 -0.1572 0.8713
vn 0.2269 -0.4008 0.8876
vn -0.7195 -0.5270 0.4523
vn -0.7603 -0.6410 0.1053
vn -0.4010 0.0031 0.9161
vn 0.4916 0.0619 0.8686
vn -0.0000 -0.8622 0.5065
vn 0.5864 -0.7965 0.1475
vn -0.5864 -0.7965 0.1475
vn -0.2093 0.0694 -0.9754
vn -0.3405 0.2095 -0.9166
vn -0.3763 0.2225 -0.8994
vn -0.0105 0.1777 -0.9840
vn 0.4347 0.2990 -0.8495
vn 0.1544 0.1031 -0.9826
vn -0.6821 -0.6154 0.3951
vn -0.3993 -0.5514 0.7325
vn -0.7753 -0.3533 0.5236
vn -0.4182 -0.7348 0.5340
vn 0.1233 -0.5488 0.8268
vn 0.2764 -0.7578 0.5910
vn 0.4127 -0.5203 0.7477
vn -0.0508 -0.7727 0.6327
vn 0.6634 -0.6038 0.4419
vn 0.8842 -0.3278 0.3328
vn 0.0355 -0.0091 -0.9993
vn 0.9738 -0.2273 -0.0089
vn 0.4568 0.3070 -0.8349
vn -0.9864 -0.1011 0.1295
vn 0.7711 -0.0275 0.6362
vn 0.4149 -0.0463 0.9087
vn -0.0161 -0.0164 0.9997
vn -0.4679 -0.1063 0.8774
vn -0.8554 0.0020 0.5179
vn -0.9940 0.0966 -0.0514
vn 0.6660 -0.2228 -0.7119
vn 0.5607 -0.4073 -0.7209
vn 0.9776 -0.1721 0.1213
vn -0.0799 -0.2663 -0.9606
vn 0.1543 0.1031 -0.9826
vn -0.1410 -0.2782 -0.9501
vn 0.1115 -0.3173 -0.9417
vn -0.5038 0.0765 0.8604
vn -0.6902 0.2134 0.6915
vn -0.9417 0.2933 -0.1650
vn -0.9300 0.2977 0.2156
vn -0.9300 0.2976 0.2157
vn 0.2063 -0.1555 -0.9660
vn 0.5579 -0.1130 -0.8222
vn 0.6408 0.3105 -0.7021
vn -0.2452 -0.6456 0.7232
vn 0.3900 -0.0917 0.9163
vn 0.5520 -0.0676 0.8311
vn 0.6807 0.0917 0.7268
vn 0.7593 0.2242 0.6109
vn 0.6513 0.6851 0.3263
vn 0.5409 0.2429 0.8052
vn 0.6020 0.0815 -0.7944
vn 0.8418 0.4537 -0.2924
vn 0.0188 -0.4787 -0.8777
vn -0.5928 -0.2117 -0.7770
vn -0.3777 -0.2210 -0.8992
vn 0.4572 0.4534 0.7651
vn 0.7530 0.6509 -0.0969
vn -0.4551 -0.8764 -0.1573
vn -0.2452 -0.6457 0.7232
vn 0.2062 -0.1556 -0.9660
vn 0.1115 -0.3174 -0.9417
vn 0.4023 -0.1520 -0.9028
vn -0.1366 -0.1549 -0.9784
vn 0.4337 0.3468 0.8316
vn -0.3831 0.1333 0.9140
vn -0.0161 -0.0163 0.9997
vn -0.6885 0.0489 -0.7236
vn 0.3521 0.0034 -0.9359
vn -0.5591 0.0531 -0.8274
vn 0.9003 0.3125 -0.3029
vn 0.7779 -0.0517 -0.6263
vn 0.7149 -0.2490 0.6534
vn 0.7150 -0.2490 0.6533
vn -0.5693 -0.1791 0.8024
vn -0.4044 -0.0087 0.9145
vn 0.3522 0.0035 -0.9359
vn 0.2339 -0.0289 -0.9718
vn -0.3768 -0.0765 -0.9231
vn 0.5481 0.0994 0.8305
vn -0.6885 0.0490 -0.7236
vn -0.8668 0.2443 -0.4348
vn -0.8607 -0.0300 0.5082
vn 0.6725 -0.1151 -0.7311
vn 0.7149 -0.2489 0.6534
vn 0.6087 0.0471 0.7920
vn -0.7220 -0.0824 0.6870
vn -0.9905 -0.0248 -0.1353
vn -0.5982 0.0206 0.8011
vn 0.2154 -0.9689 -0.1214
vn 0.0521 -0.9986 -0.0040
vn -0.0041 -0.9999 -0.0168
vn 0.0950 0.4012 0.9110
vn 0.7326 0.4373 0.5217
vn 0.4931 0.6691 0.5560
vn 0.0239 0.8305 0.5564
vn -0.6297 0.7180 0.2966
vn -0.4715 0.3608 0.8047
vn 0.7481 0.6378 -0.1829
vn 0.9400 0.2781 -0.1978
vn 0.5441 0.8362 0.0685
vn 0.4729 -0.7160 -0.5135
vn 0.8818 0.4149 -0.2242
vn 0.7522 -0.6270 -0.2026
vn -0.9995 0.0277 -0.0159
vn 0.7325 0.4373 0.5218
vn 0.6363 0.6833 0.3581
vn -0.1921 0.5690 0.7996
vn -0.3998 0.4107 0.8194
vn 0.0774 0.4751 0.8765
vn -0.1032 -0.2800 -0.9544
vn -0.5505 0.3020 -0.7783
vn 0.3501 0.3579 -0.8657
vn 0.6364 0.6832 0.3581
vn 0.8818 0.4149 -0.2243
vn 0.7243 0.0143 -0.6894
vn 0.3500 0.3580 -0.8656
vn -0.2008 0.9489 0.2434
vn -0.5725 0.6918 0.4401
vn -0.6978 0.6083 0.3782
vn -0.2706 -0.9536 -0.1318
vn -0.1425 -0.9885 -0.0503
vn 0.2987 -0.8564 -0.4212
vn -0.9471 -0.1517 -0.2828
vn -0.5506 0.3019 -0.7783
vn -0.3373 -0.6858 -0.6449
vn -0.0644 -0.9978 0.0129
vn -0.2623 -0.8267 -0.4977
vn 0.1316 -0.9904 0.0411
vn -0.4669 -0.7158 -0.5192
vn -0.1616 -0.9031 -0.3980
vn -0.9201 0.3516 -0.1727
vn -0.7792 0.5895 -0.2130
vn -0.5506 0.3020 -0.7782
vn -0.4715 0.8540 0.2199
vn -0.3879 0.6662 0.6370
vn -0.5725 0.6918 0.4400
vn 0.1317 -0.9904 0.0412
vn 0.0772 -0.9963 -0.0378
vn -0.9229 0.2689 -0.2756
vn -0.8086 0.5877 0.0278
vn -0.1615 -0.9031 -0.3980
vn 0.2986 -0.8564 -0.4212
vn -0.7021 -0.7100 -0.0545
vn -0.9199 0.3274 0.2157
vn -0.9229 0.2688 -0.2756
vn -0.3999 0.4108 0.8194
vn -0.5682 0.6807 0.4624
vn -0.0152 -0.9676 -0.2522
vn 0.2787 -0.9453 -0.1693
vn -0.1425 -0.9885 -0.0502
vn 0.5366 -0.5511 -0.6390
vn -0.5725 0.6919 0.4400
vn -0.6489 0.7609 0.0016
vn -0.6978 0.6083 0.3783
vn -0.8794 0.4562 -0.1361
vn -0.7280 0.4114 0.5484
vn -0.1138 0.3622 -0.9251
vn -0.6489 0.7609 0.0017
vn -0.8755 0.3927 -0.2815
vn 0.8369 0.4524 0.3081
vn 0.7650 0.3697 -0.5273
vn 0.0377 0.5722 0.8193
vn 0.1067 -0.9924 -0.0615
vn -0.2786 -0.9453 -0.1694
vn 0.0669 -0.9472 -0.3135
vn 0.5726 0.6918 0.4400
vn -0.0774 0.4751 0.8765
vn 0.1921 0.5690 0.7996
vn 0.4715 0.3608 0.8047
vn -0.0239 0.8305 0.5564
vn -0.0950 0.4012 0.9110
vn 0.1032 -0.2801 -0.9544
vn -0.5366 -0.5511 -0.6390
vn -0.3501 0.3579 -0.8657
vn 0.9199 0.3274 0.2157
vn 0.7021 -0.7099 -0.0544
vn 0.1068 -0.9924 -0.0616
vn -0.2154 -0.9689 -0.1214
vn 0.2706 -0.9536 -0.1318
vn 0.0041 -0.9999 -0.0168
vn 0.6297 0.7180 0.2966
vn 0.2008 0.9489 0.2434
vn 0.5682 0.6807 0.4624
vn 0.3999 0.4108 0.8194
vn 0.9229 0.2688 -0.2756
vn -0.9400 0.2781 -0.1978
vn -0.5441 0.8362 0.0685
vn -0.8818 0.4149 -0.2242
vn -0.2986 -0.8564 -0.4212
vn 0.2401 -0.8446 -0.4786
vn 0.5725 0.6918 0.4401
vn 0.3878 0.6661 0.6371
vn 0.4715 0.8540 0.2199
vn 0.5506 0.3020 -0.7782
vn 0.8085 0.5878 0.0279
vn 0.9229 0.2689 -0.2756
vn -0.1574 -0.9874 -0.0144
vn -0.2052 -0.9677 -0.1467
vn 0.0644 -0.9978 0.0129
vn 0.7792 0.5895 -0.2130
vn 0.9201 0.3515 -0.1727
vn -0.2987 -0.8564 -0.4212
vn 0.5505 0.3020 -0.7783
vn 0.4142 -0.4488 -0.7919
vn -0.6363 0.6832 0.3581
vn 0.9995 0.0277 -0.0158
vn 0.6978 0.6083 0.3782
vn 0.3998 0.4108 0.8194
vn -0.3500 0.3580 -0.8656
vn -0.7243 0.0143 -0.6894
vn -0.8818 0.4149 -0.2243
vn -0.7522 -0.6270 -0.2026
vn -0.4728 -0.7161 -0.5135
vn -0.6363 0.6833 0.3581
vn -0.7325 0.4372 0.5218
vn -0.4931 0.6691 0.5560
vn -0.0521 -0.9986 -0.0040
vn -0.7481 0.6378 -0.1829
vn -0.7326 0.4373 0.5217
vn -0.8369 0.4525 0.3081
vn -0.0377 0.5722 0.8193
vn 0.1138 0.3622 -0.9251
vn -0.7650 0.3697 -0.5273
vn 0.8794 0.4562 -0.1361
vn 0.6978 0.6083 0.3783
vn 0.6489 0.7609 0.0016
vn 0.8755 0.3927 -0.2815
vn 0.6488 0.7609 0.0017
vn 0.7280 0.4115 0.5484
vn -0.0000 -0.7554 0.6553
vn -0.0000 -0.8622 0.5066
vn 0.4324 0.1308 0.8921
vn -0.0991 -0.1645 0.9814
vn 0.4639 0.3566 0.8109
vn -0.0000 -0.9488 0.3160
vn -0.4639 0.3566 0.8109
vn 0.0990 -0.1646 0.9814
vn -0.4324 0.1308 0.8921
vt 0.566305 0.536893
vt 0.548386 0.680589
vt 0.552957 0.629086
vt 0.629445 0.677006
vt 0.615011 0.534740
vt 0.629677 0.627137
vt 0.579106 0.508022
vt 0.561680 0.626320
vt 0.599371 0.507126
vt 0.587087 0.583540
vt 0.613267 0.624309
vt 0.610104 0.844528
vt 0.608279 0.919464
vt 0.565272 0.848222
vt 0.568460 0.921225
vt 0.588078 0.938010
vt 0.591354 0.504611
vt 0.593464 0.573575
vt 0.550575 0.780609
vt 0.625945 0.777277
vt 0.615924 0.753199
vt 0.635648 0.757034
vt 0.574793 0.755824
vt 0.546877 0.759785
vt 0.568035 0.823091
vt 0.587160 0.859333
vt 0.586368 0.814557
vt 0.606075 0.821409
vt 0.596264 0.946277
vt 0.578944 0.935260
vt 0.587244 0.995124
vt 0.583569 0.994354
vt 0.612223 0.951825
vt 0.595138 0.995313
vt 0.564894 0.939079
vt 0.599813 0.992829
vt 0.598626 0.989969
vt 0.602531 0.986527
vt 0.586575 0.988790
vt 0.579386 0.987281
vt 0.556650 0.910491
vt 0.564941 0.906278
vt 0.626614 0.898939
vt 0.627675 0.842155
vt 0.550883 0.845550
vt 0.552526 0.800962
vt 0.595029 0.846461
vt 0.623275 0.797834
vt 0.624240 0.889257
vt 0.588341 0.504925
vt 0.615014 0.548020
vt 0.609093 0.758543
vt 0.625089 0.774260
vt 0.586040 0.746803
vt 0.565328 0.768130
vt 0.578709 0.886696
vt 0.632146 0.838084
vt 0.622261 0.877266
vt 0.612870 0.955927
vt 0.562033 0.561537
vt 0.552417 0.782338
vt 0.578910 0.515063
vt 0.570459 0.583540
vt 0.552691 0.844921
vt 0.566235 0.880818
vt 0.556017 0.708376
vt 0.552316 0.655505
vt 0.550018 0.655679
vt 0.595455 0.888205
vt 0.627093 0.655694
vt 0.604270 0.582314
vt 0.568147 0.962402
vt 0.603514 0.516493
vt 0.631133 0.707134
vt 0.624059 0.657737
vt 0.568150 0.908825
vt 0.596513 0.996837
vt 0.609314 0.847640
vt 0.585718 0.524367
vt 0.630687 0.653714
vt 0.615764 0.609063
vt 0.575985 0.650115
vt 0.581363 0.846901
vt 0.546790 0.763195
vt 0.582323 0.654327
vt 0.580162 0.848929
vt 0.586558 0.997277
vt 0.618633 0.906593
vt 0.596605 0.649203
vt 0.553184 0.657140
vt 0.598517 0.523801
vt 0.559592 0.611547
vt 0.606498 0.653258
vt 0.592028 0.846430
vt 0.631404 0.759455
vt 0.625825 0.611987
vt 0.617614 0.619421
vt 0.575182 0.587390
vt 0.595138 0.819539
vt 0.609743 0.832316
vt 0.581091 0.777230
vt 0.609852 0.791532
vt 0.626704 0.613747
vt 0.578740 0.839090
vt 0.560748 0.573843
vt 0.555846 0.620033
vt 0.549489 0.657046
vt 0.626346 0.647538
vt 0.612755 0.561741
vt 0.587160 0.576153
vt 0.558562 0.619782
vt 0.553153 0.612144
vt 0.616173 0.571124
vt 0.586841 0.574456
vt 0.566145 0.557592
vt 0.598254 0.584121
vt 0.634178 0.774527
vt 0.571212 0.629102
vt 0.587070 0.712824
vt 0.566887 0.722882
vt 0.624943 0.735565
vt 0.606031 0.705579
vt 0.551633 0.726387
vt 0.612338 0.800962
vt 0.561918 0.694105
vt 0.564169 0.842061
vt 0.592401 0.519574
vt 0.618586 0.741836
vt 0.577919 0.850202
vt 0.560236 0.917233
vt 0.547034 0.812467
vt 0.597316 0.651152
vt 0.628305 0.758182
vt 0.623949 0.674758
vt 0.558945 0.645070
vt 0.554897 0.668644
vt 0.554659 0.696384
vt 0.627521 0.825008
vt 0.579241 0.794597
vt 0.577900 0.739510
vt 0.585402 0.654295
vt 0.586824 0.654232
vt 0.620100 0.570385
vt 0.615910 0.602211
vt 0.606311 0.555109
vt 0.586914 0.571029
vt 0.575921 0.610682
vt 0.569337 0.556743
vt 0.594254 0.738787
vt 0.597252 0.609739
vt 0.559738 0.604694
vt 0.558240 0.573120
vt 0.565930 0.686105
vt 0.607170 0.684283
vt 0.600866 0.507597
vt 0.587132 0.556790
vt 0.613393 0.569096
vt 0.615350 0.539251
vt 0.599354 0.521554
vt 0.577401 0.508635
vt 0.577312 0.522528
vt 0.564155 0.541514
vt 0.562909 0.571328
vt 0.608822 0.776004
vt 0.627661 0.616859
vt 0.579879 0.833636
vt 0.610736 0.837676
vt 0.579988 0.792853
vt 0.557059 0.617094
vt 0.550975 0.650869
vt 0.610230 0.555643
vt 0.575537 0.585395
vt 0.624968 0.608969
vt 0.616867 0.617205
vt 0.628451 0.653824
vt 0.586449 0.576185
vt 0.563729 0.564177
vt 0.616209 0.571391
vt 0.557887 0.620080
vt 0.552588 0.615224
vt 0.598646 0.584373
vt 0.624159 0.723181
vt 0.605994 0.721153
vt 0.584937 0.712918
vt 0.566923 0.707307
vt 0.550995 0.738835
vt 0.550276 0.778236
vt 0.616008 0.627122
vt 0.561854 0.803194
vt 0.570235 0.743974
vt 0.591726 0.519872
vt 0.611338 0.848725
vt 0.633781 0.808632
vt 0.611691 0.691905
vt 0.618505 0.912408
vt 0.610386 0.838037
vt 0.559262 0.828026
vt 0.610526 0.793214
vt 0.558623 0.761262
vt 0.630741 0.693021
vt 0.620349 0.666020
vt 0.552134 0.677933
vt 0.575274 0.650147
vt 0.615828 0.640575
vt 0.625593 0.596977
vt 0.623877 0.676204
vt 0.591426 0.579925
vt 0.617712 0.901296
vt 0.588789 0.937979
vt 0.560482 0.916415
vt 0.562876 0.713060
vt 0.615185 0.951228
vt 0.614997 0.588663
vt 0.631390 0.856944
vt 0.559987 0.570102
vt 0.561423 0.892369
vt 0.569731 0.661368
vt 0.582443 0.506261
vt 0.591757 0.703488
vt 0.569661 0.847341
vt 0.610199 0.864080
vt 0.580254 0.976563
vt 0.557557 0.885596
vt 0.549912 0.704274
vt 0.583566 0.549372
vt 0.560726 0.934002
vt 0.558282 0.921225
vt 0.558660 0.895717
vt 0.588859 0.923724
vt 0.621438 0.920172
vt 0.622701 0.911575
vt 0.596482 0.953821
vt 0.595242 0.505696
vt 0.570913 0.590612
vt 0.602053 0.548555
vt 0.620128 0.882829
vt 0.615462 0.889981
vt 0.610515 0.710954
vt 0.587367 0.938042
vt 0.582183 0.580333
vt 0.598156 0.703205
vt 0.578913 0.865463
vt 0.621847 0.567368
vt 0.557333 0.599995
vt 0.618076 0.913869
vt 0.598741 0.975746
vt 0.603150 0.659890
vt 0.633814 0.700565
vt 0.565412 0.953428
vt 0.551754 0.860465
vt 0.620453 0.931362
vt 0.618723 0.845173
vt 0.560118 0.903842
vt 0.552062 0.679379
vt 0.558867 0.922938
vt 0.580839 0.954512
vt 0.599525 0.923252
vt 0.562263 0.914247
vt 0.623697 0.918333
vt 0.619098 0.893045
vt 0.593769 0.594588
vt 0.579549 0.595217
vt 0.589024 0.499393
s 1
usemtl dk
f 62/61/67 61/62/68 60/63/69
f 65/64/70 64/65/71 63/66/72
f 67/67/73 66/68/74 61/62/68
f 69/69/75 68/70/76 67/67/73
f 65/64/70 70/71/77 69/69/75
f 67/67/73 61/62/68 62/61/67
f 71/72/78 70/71/77 65/64/70
f 65/64/70 69/69/75 64/65/71
f 67/67/73 68/70/76 66/68/74
f 71/72/79 65/64/70 72/73/80
f 61/62/68 74/74/81 73/75/82
f 61/62/68 66/68/74 74/74/83
f 66/68/84 75/76/85 74/74/86
f 66/68/74 68/70/76 75/76/87
f 71/72/88 75/76/89 68/70/90
f 70/71/77 68/70/76 69/69/75
f 76/77/91 69/69/75 67/67/73
f 71/72/78 68/70/76 70/71/77
f 77/78/92 76/77/91 62/61/67
f 76/77/91 67/67/73 62/61/67
f 64/65/71 69/69/75 76/77/91
f 77/78/92 62/61/67 60/63/69
f 63/66/72 76/77/91 77/78/92
f 63/66/72 64/65/71 76/77/91
f 61/62/68 73/75/82 78/79/93
f 60/63/69 61/62/68 78/79/93
f 79/80/94 72/73/80 65/64/70
f 79/80/94 65/64/70 63/66/72
f 63/66/72 81/81/95 80/82/96
f 82/80/97 63/66/72 80/82/96
f 81/81/95 77/78/92 83/83/98
f 63/66/72 77/78/92 81/81/95
f 84/84/99 83/83/98 60/63/69
f 83/83/98 77/78/92 60/63/69
f 84/84/99 60/63/69 85/79/100
f 88/85/101 87/86/102 86/87/103
f 86/87/103 87/86/102 89/88/104
f 86/87/103 89/88/104 90/89/105
f 91/90/106 88/85/101 86/87/103
f 93/91/107 92/92/108 91/90/106
f 90/89/105 89/88/104 94/93/109
f 95/94/110 93/91/111 90/89/112
f 92/92/108 96/95/113 91/90/106
f 93/91/111 91/90/106 90/89/105
f 97/96/114 95/94/115 90/89/105
f 99/97/116 94/93/109 98/98/117
f 86/87/103 90/89/105 91/90/106
f 97/96/114 90/89/105 94/93/109
f 94/93/109 99/97/116 97/96/114
f 100/99/118 96/95/113 92/92/108
f 100/99/118 101/100/119 96/95/113
f 91/90/106 96/95/113 88/85/101
f 103/101/120 101/100/121 102/102/122
f 106/82/123 105/81/123 104/103/123
f 109/104/124 108/82/124 107/103/124
f 111/105/125 110/106/126 96/95/127
f 113/103/128 94/93/129 112/104/130
f 116/102/131 115/107/131 114/83/131
f 94/93/132 117/108/133 112/104/134
f 96/95/127 110/106/126 88/85/101
f 120/109/135 119/103/135 118/81/135
f 89/88/104 117/108/133 94/93/132
f 123/83/136 122/107/136 121/81/136
f 103/101/120 111/105/137 96/95/138
f 126/83/139 125/84/139 124/101/139
f 103/101/120 96/95/140 101/100/119
f 129/107/141 128/109/141 127/81/141
f 132/102/142 131/83/142 130/101/142
f 135/84/143 134/105/143 133/101/143
f 113/103/144 98/98/117 94/93/145
f 113/103/144 136/109/146 98/98/147
f 139/110/148 138/111/149 137/112/150
f 137/112/151 138/111/152 140/113/153
f 139/110/154 137/112/151 141/114/155
f 139/110/154 141/114/155 142/115/156
f 143/116/157 142/115/158 141/114/159
f 146/117/160 145/118/161 144/119/162
f 139/110/148 142/115/163 147/120/164
f 149/121/165 148/122/166 147/120/167
f 149/121/168 150/123/169 148/122/166
f 153/124/170 152/125/171 151/126/172
f 101/127/173 150/123/174 154/128/175
f 137/112/176 140/113/177 155/129/178
f 157/130/179 140/113/180 156/131/181
f 149/121/182 147/120/183 142/115/184
f 143/116/185 149/121/186 142/115/187
f 158/132/188 152/125/171 153/124/170
f 139/110/189 147/120/190 148/122/191
f 101/127/192 154/128/193 151/126/172
f 150/123/194 149/121/195 154/128/196
f 158/132/188 153/124/170 149/121/197
f 143/116/185 158/132/188 149/121/198
f 143/116/157 141/114/159 155/129/199
f 149/121/200 153/124/201 154/128/193
f 159/133/202 139/110/203 148/122/204
f 160/134/205 157/130/206 98/135/207
f 140/113/208 146/117/160 144/119/162
f 140/113/209 144/119/162 155/129/199
f 138/111/210 156/131/211 140/113/212
f 138/111/213 159/133/214 156/131/215
f 160/134/205 145/118/161 146/117/160
f 157/130/216 156/131/217 98/135/218
f 159/133/219 138/111/210 139/110/154
f 157/130/220 146/117/160 140/113/221
f 153/124/170 151/126/172 154/128/222
f 141/114/159 137/112/150 155/129/199
f 163/136/223 162/137/224 161/138/225
f 157/130/226 160/134/205 146/117/160
f 165/139/227 102/140/228 164/141/229
f 167/142/230 164/141/231 166/143/232
f 165/139/233 164/141/229 167/142/234
f 170/144/235 169/143/236 168/137/235
f 171/145/237 102/140/228 165/139/227
f 102/140/228 171/145/237 161/138/238
f 170/144/235 168/137/235 172/136/239
f 175/146/240 174/147/241 173/148/242
f 167/142/243 166/143/244 176/144/245
f 178/149/246 136/150/247 177/151/248
f 178/149/249 179/152/250 136/150/247
f 177/151/248 136/150/247 180/153/251
f 181/154/252 179/152/253 178/149/254
f 184/148/255 183/154/255 182/155/256
f 184/148/255 185/147/257 183/154/255
f 186/155/258 181/154/252 178/149/254
f 175/146/259 180/153/251 136/150/247
f 197/156/260 196/157/261 195/158/262
f 200/159/263 199/160/264 198/161/265
f 202/162/266 201/163/267 197/164/268
f 197/156/260 195/158/262 200/165/269
f 204/166/270 203/167/271 198/161/272
f 205/168/273 201/163/274 202/162/275
f 199/169/276 203/167/271 204/166/270
f 199/169/276 206/170/277 203/167/271
f 206/171/277 199/172/276 200/173/269
f 202/162/266 200/159/278 198/161/279
f 205/168/273 196/174/261 197/175/260
f 206/171/277 200/173/269 195/176/262
f 199/160/264 204/166/280 198/161/265
f 205/168/273 197/175/260 201/163/274
f 202/162/266 197/164/268 200/159/278
f 208/177/281 198/161/279 207/178/282
f 208/177/283 202/162/266 198/161/279
f 206/171/277 210/179/284 209/180/285
f 206/171/277 195/176/262 210/179/284
f 212/181/286 211/182/287 196/174/261
f 203/167/271 213/183/288 207/178/289
f 207/178/290 198/161/291 203/167/271
f 212/181/286 196/174/261 205/168/273
f 208/177/292 205/168/273 202/162/275
f 208/177/293 212/181/286 205/168/273
f 211/182/287 195/158/262 196/157/261
f 211/182/287 210/179/284 195/158/262
f 203/167/271 209/180/285 213/183/288
f 203/167/271 206/170/277 209/180/285
f 209/180/285 210/179/284 214/184/294
f 215/185/295 207/178/289 213/183/288
f 216/186/296 215/185/295 213/183/288
f 209/180/285 214/184/294 216/186/297
f 215/185/298 217/187/298 207/178/299
f 219/188/300 207/178/282 218/189/301
f 219/188/302 208/177/281 207/178/303
f 218/189/301 207/178/282 217/187/304
f 211/182/287 212/181/286 214/184/305
f 218/189/306 220/190/307 216/186/297
f 220/190/307 215/185/295 216/186/296
f 209/180/285 216/186/296 213/183/288
f 215/185/308 221/191/309 217/187/310
f 221/191/311 220/190/307 218/189/312
f 212/181/286 208/177/313 214/184/305
f 220/190/307 221/191/314 215/185/295
f 210/179/284 211/182/287 214/184/305
f 221/191/315 218/189/316 217/187/317
f 208/177/313 219/188/318 214/184/319
f 214/192/320 219/193/321 222/194/322
f 216/195/323 223/196/324 218/197/325
f 222/194/326 219/193/318 224/198/327
f 214/192/328 223/196/329 216/195/296
f 219/193/300 218/197/301 225/199/330
f 214/192/328 222/194/331 223/196/329
f 223/196/332 225/199/333 218/197/334
f 219/193/335 225/199/336 224/198/337
f 188/200/338 190/201/339 193/202/340
f 228/203/341 227/204/342 226/205/343
f 230/206/344 189/207/345 229/208/346
f 188/200/338 193/202/340 187/209/347
f 193/202/340 230/206/344 192/210/348
f 227/204/342 192/210/348 226/205/343
f 189/207/345 230/206/344 190/201/339
f 229/208/346 232/211/349 231/212/350
f 226/205/343 192/210/348 230/206/344
f 229/208/346 189/207/345 232/211/349
f 190/201/339 230/206/344 193/202/340
f 189/207/345 194/213/351 232/211/349
f 227/204/342 191/214/352 192/210/348
f 226/215/343 234/216/353 233/217/354
f 226/215/343 233/217/354 228/218/341
f 234/216/353 230/219/344 229/220/346
f 226/215/343 230/221/344 234/216/353
f 231/222/350 235/223/355 229/220/346
f 235/223/355 234/216/353 229/220/346
f 238/224/356 237/225/357 236/226/358
f 241/159/359 240/227/360 239/228/361
f 244/229/362 243/174/363 242/230/364
f 244/229/362 240/231/365 243/174/363
f 246/232/366 236/233/367 245/234/368
f 246/232/366 241/165/369 236/233/367
f 237/225/370 247/235/371 245/236/368
f 238/224/372 241/159/359 239/228/361
f 238/224/373 247/235/371 237/225/370
f 237/225/370 245/236/368 236/237/367
f 240/227/360 244/229/374 239/228/361
f 239/228/375 244/229/362 242/230/364
f 241/238/369 243/239/363 240/240/365
f 241/238/369 246/241/366 243/239/363
f 238/224/356 236/226/358 241/159/359
f 248/242/376 245/236/368 247/235/371
f 248/242/376 249/243/377 245/236/368
f 243/239/363 251/244/378 250/245/379
f 243/239/363 246/241/366 251/244/378
f 239/228/375 253/246/380 252/247/381
f 239/228/375 242/230/364 253/246/380
f 242/230/364 243/174/363 250/245/379
f 247/235/371 238/224/382 254/248/383
f 254/248/384 248/242/376 247/235/371
f 242/230/364 250/245/379 253/246/380
f 249/243/377 246/232/366 245/234/368
f 249/243/377 251/244/378 246/232/366
f 254/248/385 239/228/386 252/247/387
f 254/248/388 238/224/372 239/228/361
f 255/249/389 250/245/379 251/244/378
f 255/249/390 256/250/391 252/247/392
f 255/249/389 252/247/393 253/246/380
f 259/251/394 258/252/395 257/253/396
f 259/251/397 257/253/398 260/254/399
f 260/254/400 257/253/401 261/255/402
f 262/256/403 260/254/400 261/255/402
f 258/252/404 261/255/402 257/253/405
f 255/249/389 253/246/380 250/245/379
f 248/242/376 262/256/403 249/243/377
f 254/248/406 252/247/407 256/250/408
f 262/256/409 261/255/402 258/252/410
f 254/248/411 259/251/412 260/254/397
f 259/251/413 254/248/414 258/252/415
f 248/242/376 260/254/400 262/256/403
f 258/252/415 254/248/414 256/250/416
f 262/256/403 251/244/378 249/243/377
f 262/256/417 255/249/418 251/244/419
f 248/242/376 254/248/384 260/254/400
f 264/257/420 263/258/421 256/259/422
f 258/260/423 263/258/424 265/261/425
f 265/261/426 266/262/427 255/263/428
f 263/258/429 258/260/430 256/259/431
f 262/264/432 265/261/426 255/263/428
f 264/257/433 256/259/434 266/262/435
f 258/260/436 265/261/437 262/264/438
f 266/262/439 256/259/440 255/263/441
f 269/265/442 268/266/443 267/267/444
f 267/267/445 268/266/446 270/268/447
f 273/269/448 272/270/449 271/271/450
f 270/268/451 269/265/452 274/272/453
f 276/273/454 275/274/455 269/265/456
f 267/267/445 270/268/447 273/269/448
f 271/271/450 272/270/449 277/275/457
f 268/266/458 269/265/452 270/268/459
f 280/276/460 279/277/461 278/278/462
f 283/279/463 282/280/464 281/281/465
f 273/269/448 270/268/466 274/272/453
f 275/274/467 276/273/468 281/281/469
f 272/270/449 285/282/470 284/283/471
f 284/283/472 277/275/457 272/270/449
f 269/265/442 277/275/473 278/278/474
f 273/269/448 274/272/453 285/282/470
f 276/273/475 269/265/442 278/278/474
f 287/284/476 282/280/477 286/285/478
f 271/271/479 277/275/473 267/267/444
f 283/279/463 286/285/480 282/280/464
f 279/277/481 287/284/482 286/285/483
f 280/276/484 288/286/485 282/280/486
f 288/286/487 280/276/488 284/283/489
f 279/277/490 286/285/491 278/278/474
f 275/274/455 274/272/453 269/265/452
f 287/284/492 280/276/493 282/280/486
f 285/282/470 272/270/449 273/269/448
f 286/285/494 283/279/463 276/273/495
f 278/278/474 277/275/496 284/283/497
f 287/284/498 279/277/499 280/276/500
f 267/267/445 273/269/448 271/271/450
f 267/267/444 277/275/473 269/265/442
f 286/285/501 276/273/502 278/278/503
f 281/281/465 276/273/504 283/279/463
f 280/276/460 278/278/462 284/283/505
f 288/286/506 284/283/507 289/287/508
f 285/282/470 290/288/509 284/283/472
f 282/280/464 291/289/510 281/281/465
f 288/286/511 289/287/512 282/280/486
f 275/274/455 292/290/513 274/272/453
f 275/274/467 281/281/469 293/291/514
f 285/282/470 274/272/453 294/292/515
f 299/293/516 298/294/517 297/295/518
f 301/296/519 299/293/520 300/297/521
f 304/298/522 303/299/523 302/300/524
f 306/301/525 298/294/526 305/302/527
f 301/296/528 307/303/529 299/293/530
f 308/304/531 307/303/532 302/300/533
f 303/299/523 310/305/534 309/306/535
f 300/297/536 312/307/537 311/308/538
f 308/304/539 314/309/540 313/310/541
f 298/294/542 306/301/525 297/295/543
f 301/296/544 300/297/545 315/311/546
f 316/312/547 300/297/548 311/308/549
f 299/293/516 311/308/550 312/307/551
f 299/293/516 297/295/518 311/308/550
f 302/300/533 307/303/532 304/298/552
f 316/312/547 315/311/553 300/297/554
f 299/293/530 308/304/531 298/294/555
f 316/312/556 297/295/543 306/301/525
f 299/293/530 307/303/532 308/304/531
f 297/295/557 316/312/547 311/308/549
f 301/296/544 309/306/535 310/305/534
f 309/306/535 314/309/540 303/299/523
f 314/309/540 317/313/558 303/299/523
f 310/305/534 307/303/559 301/296/560
f 299/293/520 312/307/561 300/297/521
f 305/302/562 298/294/563 313/310/564
f 307/303/559 310/305/534 304/298/522
f 305/302/527 316/312/556 306/301/525
f 308/304/565 313/310/541 298/294/566
f 317/313/567 308/304/539 318/314/568
f 304/298/522 310/305/534 303/299/523
f 303/299/523 317/313/569 302/300/524
f 302/300/533 318/314/570 308/304/531
f 314/309/540 308/304/539 317/313/571
f 317/313/569 318/314/572 302/300/524
f 314/309/540 319/315/573 313/310/541
f 320/316/574 314/309/540 309/306/535
f 305/302/527 321/317/575 316/312/556
f 322/318/576 305/302/562 313/310/564
f 323/319/577 301/296/578 315/311/579
f 316/312/547 323/319/580 315/311/581
f 301/296/560 324/320/582 309/306/535
f 328/321/583 234/216/584 327/322/583
f 329/216/585 296/321/586 295/217/587
f 328/321/583 327/322/583 330/323/588
f 326/223/589 325/322/590 331/216/591
o 6
v 0.128688 0.247118 0.712586
v 0.226923 0.256942 0.555344
v -0.215266 0.256942 0.555344
v -0.117032 0.247118 0.712586
v 0.010740 0.247118 0.742123
v -0.244803 0.384713 0.437462
v 0.256460 0.384713 0.437462
vn -0.5609 0.5022 0.6582
vn 0.3312 0.7829 0.5267
vn 0.7341 0.3810 0.5621
vn -0.4033 0.7897 0.4624
vn -0.5076 0.7801 0.3658
vn -0.0240 0.8592 0.5110
vn 0.4433 0.6262 0.6414
vt 0.095435 0.499759
vt 0.005863 0.738752
vt 0.000288 0.499759
vt 0.089860 0.738752
vt 0.070162 0.952965
vt 0.046746 1.001424
vt 0.025561 0.952965
s 1
usemtl dk
f 337/324/592 333/325/593 338/326/594
f 337/324/592 334/327/595 333/325/593
f 334/327/595 335/328/596 336/329/597
f 334/327/595 336/329/597 333/325/593
f 336/329/597 332/330/598 333/325/593
o 7
v -0.215266 0.559530 0.256164
v -0.254625 0.598824 0.285633
v -0.225156 0.441582 0.334817
v -0.205441 0.451406 0.393757
v -0.215266 0.490699 0.265986
v 0.276107 0.598824 0.285633
v 0.236745 0.559530 0.256164
v -0.264450 0.579177 0.354464
v 0.246635 0.441582 0.334817
v 0.226923 0.451406 0.393757
v 0.236745 0.490699 0.265986
v 0.285929 0.579177 0.354464
vn 0.9455 -0.1963 0.2597
vn 0.4407 0.0561 0.8959
vn 0.9601 -0.2783 0.0287
vn 0.8739 -0.2178 -0.4346
vn 0.9561 -0.2873 -0.0570
vn 0.9601 -0.2783 0.0286
vn 0.2768 0.3835 -0.8811
vn 0.6386 0.1455 -0.7557
vn 0.8739 -0.2179 -0.4345
vn 0.8365 -0.2128 -0.5049
vn 0.9561 -0.2874 -0.0570
vn -0.9601 -0.2783 0.0286
vn -0.9561 -0.2873 -0.0570
vn -0.8739 -0.2178 -0.4345
vn -0.7126 -0.6998 0.0506
vn -0.3106 -0.3099 0.8986
vn -0.9455 -0.1964 0.2597
vn -0.6386 0.1455 -0.7557
vn -0.2768 0.3835 -0.8811
vn -0.8739 -0.2178 -0.4346
vn -0.8365 -0.2127 -0.5049
vt 0.103814 0.886035
vt 0.090895 0.503959
vt 0.137282 0.534525
vt 0.182143 0.721626
vt 0.179803 0.896687
vt 0.149896 0.997648
s 1
usemtl dk
f 350/331/599 348/332/600 347/333/601
f 349/334/602 350/331/603 347/333/604
f 349/334/602 345/335/605 344/336/606
f 349/334/607 344/336/608 350/331/609
f 341/333/610 346/331/611 343/334/612
f 341/333/613 342/332/614 346/331/615
f 340/336/616 339/335/617 343/334/618
f 346/331/611 340/336/619 343/334/612
o 8
v 0.010740 0.264694 0.737712
v -0.107207 0.264694 0.708242
v 0.118864 0.264694 0.708242
v -0.205441 0.274517 0.570647
v -0.244803 0.382642 0.433051
v 0.256460 0.382642 0.433051
v 0.217098 0.274517 0.570647
vn -0.0037 -0.9096 -0.4154
vn 0.4493 -0.7176 -0.5322
vn 0.3010 -0.8195 -0.4877
vn -0.3047 -0.8175 -0.4887
vn -0.7196 -0.4310 -0.5445
vn -0.4541 -0.7139 -0.5330
vn 0.7196 -0.4310 -0.5445
vt 0.864907 0.502154
vt 0.895295 0.625266
vt 0.885112 0.559812
vt 0.845139 0.562540
vt 0.819554 0.782858
vt 0.835594 0.629341
vt 0.911960 0.776549
s 1
usemtl dk
f 351/337/620 352/338/621 355/339/622
f 356/340/623 357/341/624 353/342/625
f 355/339/622 352/338/621 354/343/626
f 351/337/620 356/340/623 353/342/625
f 351/337/620 355/339/622 356/340/623
o 9
v 0.000917 0.471052 0.560822
v 0.020564 0.471052 0.560822
v 0.148335 0.412112 0.482235
v 0.118864 0.431759 0.501882
v -0.097385 0.431759 0.501882
v -0.126854 0.412112 0.482235
v -0.195619 0.500590 0.334817
v 0.217098 0.500590 0.334817
v -0.048201 0.608647 0.580469
v 0.148335 0.667655 0.452698
v 0.187629 0.628294 0.423229
v -0.087560 0.530060 0.541175
v -0.136678 0.579177 0.472413
v -0.175972 0.520236 0.433051
v -0.166148 0.628294 0.423229
v 0.069680 0.608647 0.580469
v 0.158158 0.579177 0.472413
v -0.126854 0.667655 0.452698
v 0.109042 0.530060 0.541175
v 0.197451 0.520236 0.433051
v 0.138511 0.500590 0.501882
v -0.117032 0.500590 0.501882
v -0.107207 0.461229 0.501882
v 0.128688 0.461229 0.501882
v 0.000917 0.500590 0.551000
v 0.256460 0.618471 0.285633
v 0.020564 0.500590 0.551000
v -0.018730 0.520236 0.551000
v 0.059858 0.657831 0.580469
v 0.059858 0.716772 0.492059
v 0.040211 0.520236 0.551000
v 0.099217 0.775713 0.452698
v 0.187629 0.736419 0.256164
v -0.038376 0.657831 0.580469
v -0.038376 0.716772 0.492059
v 0.010740 0.923131 0.334817
v 0.069680 0.726595 0.138215
v 0.079505 0.834720 0.393757
v 0.128688 0.677478 0.118568
v 0.050033 0.815073 0.541175
v 0.010740 0.785536 0.629655
v -0.028554 0.815073 0.541175
v 0.010740 0.883837 0.423229
v 0.010740 0.893660 0.560822
v 0.010740 0.775713 0.492059
v -0.234978 0.618471 0.285633
v -0.107207 0.677478 0.118568
v -0.166148 0.736419 0.256164
v -0.048201 0.726595 0.138215
v -0.107207 0.677478 0.118568
v 0.069680 0.726595 0.138215
v 0.128688 0.677478 0.118568
v -0.058023 0.834720 0.393757
v -0.077738 0.775713 0.452698
v -0.048201 0.726595 0.138215
v 0.197451 0.644266 0.063571
v 0.010740 0.644266 0.043924
v 0.256460 0.618471 0.285633
v -0.175972 0.644266 0.063571
v 0.266282 0.575502 0.122579
v -0.244803 0.575502 0.122579
v -0.234978 0.618471 0.285633
v 0.197451 0.408436 0.201166
v 0.217098 0.500590 0.334817
v 0.010740 0.372818 0.246339
v -0.175972 0.408436 0.201166
v -0.195619 0.500590 0.334817
v 0.344870 0.555855 0.024277
v 0.236745 0.575502 -0.054378
v -0.215266 0.575502 -0.054378
v -0.284097 0.369143 0.171695
v -0.323390 0.555855 0.024277
v 0.010740 0.585325 -0.074025
v 0.607028 -0.326249 0.142961
v 0.380957 -0.326249 0.103667
v 0.616853 -0.336073 -0.073222
v 0.390779 -0.316426 -0.112516
v 0.479257 -0.414660 0.172430
v 0.607028 -0.031413 0.152783
v 0.685615 -0.051059 -0.083045
v 0.498904 0.007948 -0.191171
v 0.312192 -0.051059 -0.083045
v 0.380957 -0.041236 0.152783
v 0.331839 -0.375366 0.025012
v 0.675793 -0.395013 0.044727
v 0.479257 -0.404836 -0.151877
v 0.490216 0.038688 -0.172191
v 0.578694 0.038688 0.093176
v 0.627812 0.058335 -0.073957
v 0.411629 0.038688 0.093176
v 0.362445 0.038688 -0.083782
v 0.559047 0.372818 0.073461
v 0.470570 0.254937 0.142292
v 0.332976 0.146813 0.024345
v 0.342798 0.176283 -0.201663
v 0.598341 0.422002 -0.132898
v 0.470570 0.333524 -0.250847
v 0.148335 0.349496 -0.290206
v 0.295753 0.516561 -0.182082
v 0.344870 0.202078 -0.280384
v 0.344870 0.555855 0.024277
v 0.305576 0.369143 0.171695
v 0.354694 0.211901 0.083218
v 0.354694 0.211901 0.083218
v 0.246635 0.035013 -0.054378
v -0.225156 0.035013 -0.054378
v -0.333213 0.211901 0.083218
v 0.344870 0.202078 -0.280384
v -0.323390 0.202078 -0.280384
v -0.215266 0.575502 -0.054378
v -0.274272 0.516561 -0.182082
v -0.126854 0.555855 -0.142788
v -0.126854 0.555855 -0.142788
v -0.126854 0.349496 -0.290206
v 0.010740 0.369143 -0.241090
v -0.274272 0.516561 -0.182082
v -0.274272 0.516561 -0.182082
v -0.215266 0.575502 -0.054378
v 0.148335 0.555855 -0.142788
v 0.295753 0.516561 -0.182082
v 0.236745 0.575502 -0.054378
v 0.148335 0.555855 -0.142788
v 0.148335 0.349496 -0.290206
v 0.295753 0.516561 -0.182082
v 0.158158 -0.083336 -0.298425
v -0.136678 -0.083336 -0.298425
v 0.197451 -0.044043 -0.406550
v -0.175972 -0.044043 -0.406550
v 0.010740 -0.073513 -0.514608
v -0.087560 -0.063690 -0.504784
v 0.109042 -0.063690 -0.504784
v -0.369300 -0.316426 -0.112516
v -0.595371 -0.336073 -0.073222
v -0.359475 -0.326249 0.103667
v -0.585549 -0.326249 0.133136
v -0.310359 -0.375366 0.025012
v -0.290712 -0.051059 -0.083045
v -0.457777 -0.414660 0.172430
v -0.359475 -0.041236 0.152783
v -0.654312 -0.404836 0.044727
v -0.664136 -0.051059 -0.083045
v -0.477424 0.007948 -0.191171
v -0.585549 -0.031413 0.152783
v -0.457777 -0.404836 -0.151877
v -0.468737 0.038688 -0.162369
v -0.557215 0.038688 0.093176
v -0.390150 0.038688 0.093176
v -0.606331 0.058335 -0.073957
v -0.340966 0.038688 -0.083782
v -0.576862 0.422002 -0.132898
v -0.449090 0.333524 -0.250847
v -0.537568 0.372818 0.073461
v -0.311494 0.146813 0.024345
v -0.321319 0.176283 -0.201663
v -0.449090 0.254937 0.142292
v -0.333213 0.211901 0.083218
v -0.323390 0.202078 -0.280384
v -0.449090 0.333524 -0.250847
v -0.321319 0.176283 -0.201663
v 0.380288 -0.664122 -0.223648
v 0.409759 -0.693592 -0.390780
v 0.311457 -0.664122 -0.528308
v 0.134570 -0.693592 -0.508661
v 0.114923 -0.683768 -0.380890
v 0.232870 -0.644475 -0.174529
v 0.152010 -0.603176 -0.430875
v 0.191371 -0.583529 -0.322750
v 0.230665 -0.573706 -0.479993
v 0.328899 -0.593353 -0.352221
v 0.319075 -0.583529 -0.440699
v 0.260134 -0.573706 -0.303103
v 0.122541 -0.396817 -0.381691
v 0.309252 -0.367347 -0.391581
v 0.220841 -0.357457 -0.489815
v 0.240487 -0.396817 -0.293281
v 0.131963 -0.349972 -0.369662
v 0.200793 -0.290965 -0.458139
v 0.299028 -0.300788 -0.399133
v 0.240087 -0.359796 -0.281184
v 0.249911 -0.094430 -0.418780
v 0.220440 -0.173084 -0.281184
v 0.151610 -0.123900 -0.546551
v 0.073022 -0.222201 -0.517080
v 0.161434 -0.271318 -0.261537
v 0.158158 -0.083336 -0.298425
v 0.197451 -0.044043 -0.406550
v 0.089395 -0.191461 -0.249241
v 0.010740 -0.250401 -0.426196
v 0.010740 -0.122630 -0.504784
v 0.109042 -0.063690 -0.504784
v -0.093441 -0.683768 -0.380890
v -0.289978 -0.664122 -0.528308
v -0.211390 -0.644475 -0.174529
v -0.388278 -0.693592 -0.390780
v -0.358808 -0.664122 -0.223648
v -0.113088 -0.693592 -0.508661
v -0.307418 -0.593353 -0.352221
v -0.238655 -0.573706 -0.303103
v -0.209184 -0.573706 -0.479993
v -0.297595 -0.583529 -0.440699
v -0.130530 -0.603176 -0.430875
v -0.169890 -0.583529 -0.322750
v -0.219008 -0.396817 -0.293281
v -0.199361 -0.357457 -0.489815
v -0.101059 -0.396817 -0.381691
v -0.287771 -0.367347 -0.391581
v -0.218608 -0.359796 -0.281184
v -0.277548 -0.300788 -0.399133
v -0.110481 -0.349972 -0.369662
v -0.179314 -0.290965 -0.458139
v -0.130128 -0.123900 -0.546551
v -0.228430 -0.094430 -0.418780
v -0.139953 -0.271318 -0.261537
v -0.198961 -0.173084 -0.281184
v -0.051541 -0.222201 -0.517080
v -0.175972 -0.044043 -0.406550
v -0.087560 -0.063690 -0.504784
v 0.010740 -0.122630 -0.504784
v 0.010740 -0.250401 -0.426196
v -0.067913 -0.191461 -0.249241
v -0.136678 -0.083336 -0.298425
v 0.010740 -0.073513 -0.514608
v 0.010740 -0.073513 -0.514608
vn 0.8202 -0.0320 0.5712
vn 0.7544 -0.1011 0.6486
vn 0.6675 -0.4497 0.5935
vn -0.7362 -0.2138 0.6420
vn -0.8202 -0.0320 0.5712
vn -0.7505 -0.0915 0.6545
vn 0.7362 -0.2139 0.6420
vn 0.6991 -0.3783 0.6067
vn 0.5959 -0.0327 0.8024
vn 0.1731 0.2740 0.9460
vn -0.0261 0.5603 0.8279
vn 0.0250 0.4189 0.9077
vn -0.6991 -0.3783 0.6067
vn 0.9806 -0.1940 -0.0278
vn 0.9268 -0.0556 0.3714
vn 0.9638 0.2212 0.1490
vn -0.1741 0.2099 0.9621
vn 0.0733 0.3325 0.9402
vn 0.6843 0.6167 0.3892
vn 0.2729 0.5397 0.7964
vn 0.4107 0.4961 0.7650
vn -0.0730 0.4808 0.8738
vn 0.6843 0.6167 0.3891
vn 0.7908 0.6117 -0.0233
vn 0.7276 0.4253 0.5383
vn -0.2754 0.4982 0.8222
vn -0.3257 0.4587 0.8268
vn 0.2165 0.5038 0.8363
vn 0.3191 0.7317 -0.6024
vn 0.1471 0.9464 -0.2874
vn 0.7645 0.6171 0.1866
vn 0.8746 0.4843 -0.0200
vn 0.6460 0.5614 -0.5172
vn 0.8595 0.4032 0.3141
vn -0.0817 -0.9510 0.2981
vn 0.0818 -0.9510 0.2981
vn -0.0000 -0.9485 -0.3167
vn 0.1163 0.9888 -0.0938
vn -0.0000 0.9865 0.1640
vn 0.8125 0.5368 0.2274
vn -0.0000 -0.3857 0.9226
vn 0.3747 -0.8085 0.4537
vn -0.3747 -0.8085 0.4537
vn -0.3503 0.4475 0.8228
vn 0.4201 0.3759 0.8260
vn -0.7908 0.6117 -0.0233
vn -0.6460 0.5614 -0.5172
vn -0.9638 0.2212 0.1490
vn 0.4455 -0.1180 0.8875
vn -0.0000 0.3714 -0.9285
vn -0.1081 0.7774 -0.6196
vn 0.1330 0.8532 -0.5043
vn -0.5823 0.7889 0.1964
vn -0.0000 0.9865 0.1641
vn -0.7644 0.6171 0.1866
vn -0.7469 0.2359 0.6217
vn 0.5823 0.7889 0.1963
vn -0.7276 0.4253 0.5383
vn -0.6843 0.6167 0.3891
vn -0.2547 0.5747 0.7777
vn -0.8747 0.4843 -0.0200
vn 0.8313 0.2985 0.4688
vn 0.7975 -0.1217 0.5909
vn 0.8124 0.5368 0.2275
vn 0.1716 0.9551 -0.2415
vn -0.8125 0.5368 0.2274
vn -0.7975 -0.1217 0.5909
vn -0.8313 0.2985 0.4688
vn -0.9233 -0.0339 0.3825
vn -0.9806 -0.1940 -0.0278
vn -0.7506 -0.0914 0.6544
vn -0.6059 -0.2952 0.7388
vn -0.6321 -0.0241 0.7745
vn -0.1471 0.9465 -0.2874
vn -0.3191 0.7317 -0.6024
vn -0.7645 0.6171 0.1866
vn -0.1716 0.9551 -0.2415
vn 0.7469 0.2359 0.6217
vn -0.8595 0.4032 0.3141
vn -0.1163 0.9888 -0.0938
vn -0.4455 -0.1180 0.8875
vn -0.3191 0.7316 -0.6024
vn -0.0001 0.9817 -0.1904
vn 0.3191 0.7316 -0.6024
vn -0.0000 0.8938 -0.4486
vn 0.3578 0.9002 -0.2482
vn 0.8573 0.5149 -0.0026
vn -0.3578 0.9002 -0.2482
vn 0.8819 0.2842 0.3761
vn -0.8573 0.5149 -0.0026
vn -0.9023 0.2827 0.3254
vn 0.8054 -0.5250 0.2751
vn 0.5033 -0.3848 0.7737
vn -0.5319 -0.8468 -0.0024
vn 0.5319 -0.8468 -0.0024
vn 0.0001 -0.9854 0.1700
vn -0.8054 -0.5250 0.2750
vn -0.4182 -0.2752 0.8657
vn -0.0000 -0.9855 0.1700
vn -0.0000 -0.9854 0.1700
vn -0.8054 -0.5250 0.2751
vn 0.5676 0.2548 0.7829
vn -0.1456 -0.0401 0.9885
vn 0.7177 -0.1065 0.6882
vn 0.6835 0.0067 -0.7299
vn 0.0822 0.1512 -0.9851
vn 0.9362 0.2172 -0.2762
vn -0.9843 -0.1002 0.1456
vn -0.5758 0.2779 0.7689
vn -0.8945 0.2401 -0.3770
vn 0.9883 -0.0570 0.1413
vn 0.0434 -0.0967 -0.9944
vn -0.5222 -0.0519 -0.8512
vn -0.7145 -0.2403 0.6570
vn 0.0271 0.0156 -0.9995
vn 0.9035 0.3000 -0.3060
vn 0.5552 0.3753 0.7422
vn -0.9925 0.0331 -0.1176
vn -0.6901 0.1904 0.6982
vn -0.9543 -0.1329 -0.2675
vn -0.5807 0.3346 0.7422
vn 0.1233 0.1459 -0.9816
vn 0.6976 0.3492 0.6257
vn -0.6902 0.1904 0.6981
vn -0.0267 -0.2004 0.9794
vn -0.8786 -0.2402 0.4127
vn -0.7940 0.0705 0.6039
vn -0.0602 -0.1015 -0.9930
vn -0.8693 -0.3043 -0.3895
vn -0.7671 -0.3621 -0.5296
vn -0.8786 -0.2402 0.4128
vn 0.7662 0.4705 -0.4377
vn 0.4016 0.0170 -0.9156
vn -0.2804 -0.6513 -0.7051
vn -0.8882 -0.1592 -0.4310
vn 0.2696 0.6898 -0.6720
vn 0.2727 0.1638 -0.9481
vn 0.1301 0.2833 -0.9502
vn 0.4016 0.0171 -0.9157
vn 0.5485 -0.3543 -0.7574
vn 0.4521 0.8369 0.3085
vn -0.7976 -0.2418 0.5526
vn 0.1640 0.1139 0.9799
vn -0.7784 -0.3830 0.4975
vn -0.5830 -0.4357 0.6857
vn -0.9744 -0.1017 -0.2006
vn -0.9610 -0.0963 0.2591
vn -0.9313 -0.0279 0.3632
vn 0.4557 -0.2827 -0.8440
vn 0.0976 -0.6441 -0.7587
vn 0.5484 -0.3543 -0.7575
vn -0.9744 -0.1017 -0.2005
vn -0.7976 -0.2418 0.5527
vn -0.9886 0.1487 0.0227
vn 0.7195 -0.5270 0.4523
vn 0.7603 -0.6409 0.1053
vn 0.8583 -0.2249 -0.4613
vn -0.7755 -0.2726 -0.5695
vn -0.7603 -0.6410 0.1053
vn -0.7195 -0.5270 0.4523
vn -0.1510 0.9222 -0.3559
vn -0.0241 0.8350 -0.5498
vn 0.1193 0.7081 -0.6960
vn -0.1885 0.9064 -0.3781
vn 0.0389 0.5454 -0.8372
vn -0.0172 0.4458 -0.8949
vn -0.0344 0.5214 -0.8526
vn -0.5439 0.7966 0.2639
vn -0.3492 0.9017 -0.2548
vn -0.3403 0.8309 -0.4403
vn 0.1510 0.9222 -0.3559
vn 0.2301 0.9087 -0.3482
vn -0.0947 0.7424 -0.6632
vn -0.0857 0.5380 -0.8386
vn 0.1554 0.8017 -0.5772
vn 0.1555 0.8017 -0.5772
vn 0.2302 0.9087 -0.3482
vn 0.5937 0.8019 0.0672
vn 0.7603 -0.6410 0.1053
vn 0.5864 -0.7964 0.1475
vn 0.8580 -0.4626 -0.2235
vn -0.8580 -0.4626 -0.2235
vn -0.5865 -0.7964 0.1475
vn -0.2503 0.3600 -0.8987
vn -0.0000 0.7162 -0.6979
vn -0.7755 -0.2727 -0.5695
vn -0.9303 -0.1225 -0.3458
vn 0.9303 -0.1225 -0.3458
vn 0.2503 0.3600 -0.8987
vn 0.8580 -0.4625 -0.2235
vn 0.9349 0.2154 -0.2819
vn 0.9843 -0.1002 0.1456
vn 0.5215 0.0298 -0.8527
vn 0.5758 0.2779 0.7689
vn 0.1155 -0.0518 0.9920
vn 0.7150 -0.2489 0.6533
vn -0.8874 0.3002 -0.3498
vn -0.6885 0.0489 -0.7236
vn -0.9849 -0.0672 0.1597
vn 0.0736 0.2027 -0.9765
vn -0.5729 0.2420 0.7831
vn -0.0434 -0.0967 -0.9944
vn -0.7220 -0.0824 0.6870
vn -0.2661 0.2493 -0.9311
vn -0.5552 0.3753 0.7422
vn 0.6902 0.1904 0.6982
vn -0.1508 0.0877 -0.9847
vn -0.9372 0.1389 -0.3198
vn 0.5807 0.3346 0.7421
vn 0.9183 0.0062 -0.3959
vn 0.9446 0.1688 -0.2816
vn 0.8432 0.1300 -0.5216
vn -0.1508 0.0878 -0.9847
vn -0.4288 0.0061 -0.9034
vn -0.7419 0.5923 -0.3143
vn -0.6976 0.3492 0.6257
vn 0.7492 -0.3754 -0.5457
vn 0.9188 -0.2166 0.3301
vn 0.9183 0.0063 -0.3959
vn 0.0267 -0.2004 0.9794
vn 0.7492 -0.3754 -0.5456
vn 0.7940 0.0705 0.6039
vn 0.9524 -0.1356 -0.2731
vn 0.6902 0.1905 0.6981
vn 0.8449 -0.1175 -0.5218
vn -0.0422 -0.0642 -0.9970
vn 0.9937 0.1101 -0.0188
vn 0.8044 -0.1561 0.5732
vn 0.9758 -0.0980 0.1956
vn -0.7754 -0.2727 -0.5695
vn -0.7304 -0.6546 -0.1953
vn -0.5484 -0.3542 -0.7575
vn 0.9938 0.1099 -0.0188
vn -0.3579 0.1715 0.9179
vn 0.1860 -0.5839 0.7902
vn 0.8618 -0.3283 0.3867
vn 0.5899 -0.3843 0.7102
vn -0.4309 -0.0426 -0.9014
vn -0.1301 0.2833 -0.9502
vn -0.1138 0.3622 -0.9251
vn -0.5506 0.3020 -0.7782
vn -0.8755 0.3927 -0.2816
vn -0.7280 0.4115 0.5484
vn -0.8755 0.3927 -0.2815
vn -0.6978 0.6083 0.3782
vn 0.8369 0.4524 0.3081
vn 0.8818 0.4149 -0.2242
vn 0.7651 0.3697 -0.5273
vn 0.7650 0.3697 -0.5273
vn 0.3501 0.3580 -0.8656
vn -0.7280 0.4114 0.5484
vn -0.2009 0.9489 0.2435
vn 0.0377 0.5721 0.8193
vn 0.1870 0.6661 0.7221
vn 0.5441 0.8362 0.0686
vn -0.9441 -0.0081 0.3294
vn 0.9817 0.1640 -0.0965
vn -0.7279 0.4115 0.5484
vn -0.6338 -0.0987 0.7672
vn -0.8755 0.3928 -0.2815
vn -0.9158 0.0581 -0.3975
vn -0.4621 0.0143 -0.8867
vn 0.3963 0.1718 -0.9019
vn -0.0436 0.1613 -0.9859
vn 0.9805 0.1848 0.0665
vn 0.7495 0.0094 0.6620
vn -0.0699 0.4550 0.8877
vn -0.2385 -0.1411 0.9608
vn -0.7702 -0.0363 0.6367
vn -0.8501 0.3057 -0.4289
vn 0.2785 -0.0931 0.9559
vn 0.0377 0.5722 0.8193
vn -0.4880 -0.2601 -0.8332
vn -0.9825 -0.0453 0.1807
vn -0.7937 -0.6052 0.0611
vn -0.1233 -0.2535 -0.9595
vn 0.5055 -0.0721 -0.8598
vn 0.9205 0.0377 -0.3889
vn 0.7883 0.1896 -0.5854
vn 0.2087 -0.2065 -0.9559
vn -0.4171 -0.2557 0.8721
vn -0.7935 -0.3745 0.4797
vn 0.7486 0.0379 0.6619
vn 0.9620 0.1848 0.2008
vn 0.6085 0.2989 0.7351
vn 0.9731 0.0738 -0.2182
vn 0.8653 0.4892 -0.1090
vn -0.2959 -0.5304 -0.7944
vn 0.3255 0.1996 -0.9242
vn 0.0252 -0.1354 -0.9905
vn -0.1234 -0.2534 -0.9595
vn -0.7221 -0.6917 0.0156
vn 0.6086 0.2989 0.7351
vn 0.9864 0.1599 -0.0381
vn -0.1765 -0.3323 0.9265
vn 0.2212 -0.1650 0.9612
vn -0.6312 -0.7235 0.2795
vn 0.3254 0.1996 -0.9243
vn 0.8031 0.0160 -0.5956
vn 0.2087 -0.2066 -0.9559
vn 0.6778 0.7336 -0.0488
vn 0.4639 0.3567 0.8109
vn -0.0990 -0.1645 0.9814
vn -0.7037 -0.6665 -0.2461
vn -0.7639 -0.6226 0.1695
vn -0.7037 -0.6666 -0.2460
vn -0.3150 -0.0558 -0.9475
vn 0.1225 0.3599 -0.9249
vn -0.8369 0.4524 0.3081
vn -0.5441 0.8362 0.0686
vn -0.1871 0.6661 0.7221
vn -0.0377 0.5721 0.8193
vn 0.2009 0.9489 0.2435
vn 0.7279 0.4115 0.5484
vn 0.1138 0.3622 -0.9251
vn -0.3501 0.3580 -0.8656
vn -0.7650 0.3697 -0.5273
vn -0.8818 0.4149 -0.2242
vn 0.6978 0.6083 0.3782
vn 0.8755 0.3928 -0.2815
vn 0.7280 0.4115 0.5484
vn 0.5506 0.3020 -0.7782
vn -0.0376 0.5721 0.8193
vn -0.2785 -0.0931 0.9559
vn 0.0436 0.1613 -0.9859
vn 0.8500 0.3058 -0.4289
vn 0.7702 -0.0363 0.6367
vn 0.2385 -0.1411 0.9608
vn 0.0699 0.4550 0.8878
vn -0.7495 0.0094 0.6620
vn -0.9805 0.1848 0.0665
vn -0.3963 0.1718 -0.9019
vn -0.9817 0.1640 -0.0965
vn 0.4622 0.0143 -0.8867
vn 0.9158 0.0581 -0.3975
vn 0.8755 0.3927 -0.2815
vn 0.6338 -0.0987 0.7672
vn 0.9442 -0.0082 0.3294
vn -0.7486 0.0379 0.6619
vn 0.4171 -0.2558 0.8721
vn -0.9621 0.1848 0.2007
vn 0.7935 -0.3745 0.4797
vn -0.2087 -0.2065 -0.9559
vn -0.7883 0.1896 -0.5853
vn -0.9205 0.0376 -0.3889
vn -0.5056 -0.0721 -0.8598
vn 0.1233 -0.2534 -0.9595
vn 0.7938 -0.6051 0.0611
vn 0.9825 -0.0454 0.1806
vn 0.4879 -0.2601 -0.8332
vn -0.9731 0.0738 -0.2183
vn -0.8653 0.4892 -0.1090
vn -0.3255 0.1996 -0.9242
vn -0.2087 -0.2066 -0.9559
vn -0.8031 0.0159 -0.5956
vn -0.3254 0.1996 -0.9243
vn 0.1765 -0.3323 0.9265
vn 0.4170 -0.2558 0.8722
vn 0.6312 -0.7235 0.2795
vn -0.6085 0.2989 0.7351
vn -0.2212 -0.1650 0.9612
vn -0.9864 0.1599 -0.0381
vn -0.7487 0.0379 0.6619
vn -0.6086 0.2989 0.7350
vn 0.7220 -0.6917 0.0156
vn 0.1234 -0.2534 -0.9595
vn 0.2959 -0.5304 -0.7944
vn -0.0252 -0.1354 -0.9905
vn -0.6778 0.7336 -0.0488
vn -0.1225 0.3599 -0.9249
vn 0.3150 -0.0558 -0.9475
vn 0.7037 -0.6666 -0.2460
vn 0.0990 -0.1645 0.9814
vn 0.7640 -0.6226 0.1695
vn 0.7037 -0.6665 -0.2461
vn -0.4639 0.3567 0.8109
vn -0.1168 -0.1948 -0.9739
vn 0.5148 0.5835 -0.6281
vn -0.0000 0.7163 -0.6978
vn -0.5147 0.5835 -0.6282
vn 0.1168 -0.1948 -0.9739
vt 0.533216 0.718391
vt 0.532092 0.686004
vt 0.533616 0.718631
vt 0.468374 0.680236
vt 0.461469 0.721365
vt 0.462519 0.688888
vt 0.524902 0.677892
vt 0.515035 0.644935
vt 0.515974 0.742290
vt 0.495785 0.786755
vt 0.495710 0.778673
vt 0.477350 0.646497
vt 0.541362 0.711646
vt 0.539485 0.647533
vt 0.542586 0.824174
vt 0.495747 0.780821
vt 0.531887 0.829672
vt 0.511783 0.844484
vt 0.515880 0.839406
vt 0.536834 0.887806
vt 0.531841 0.788993
vt 0.477470 0.840998
vt 0.481344 0.845745
vt 0.517098 0.731145
vt 0.514408 0.926742
vt 0.500977 0.987175
vt 0.534132 0.885538
vt 0.537590 0.816768
vt 0.524154 0.899583
vt 0.534395 0.629357
vt 0.461922 0.632362
vt 0.496007 0.612262
vt 0.499494 0.976960
vt 0.498567 0.957327
vt 0.495896 0.624745
vt 0.476114 0.743943
vt 0.463637 0.890841
vt 0.482845 0.901296
vt 0.457069 0.827719
vt 0.492666 0.927644
vt 0.464559 0.888422
vt 0.462992 0.791847
vt 0.463763 0.832496
vt 0.475064 0.732887
vt 0.459320 0.820013
vt 0.458316 0.650898
vt 0.455845 0.715191
vt 0.461143 0.721635
vt 0.502387 0.972273
vt 0.509691 0.978703
vt 0.522291 0.958063
vt 0.480257 0.959805
vt 0.493747 0.979364
vt 0.545745 0.752025
vt 0.454430 0.755810
vt 0.524151 0.541961
vt 0.476320 0.543943
vt 0.499420 0.503264
vt 0.522691 0.779935
vt 0.490164 0.704316
vt 0.521706 0.708146
vt 0.532423 0.734735
vt 0.504909 0.798472
vt 0.543930 0.811330
vt 0.454347 0.718661
vt 0.470548 0.789924
vt 0.459101 0.814590
vt 0.544826 0.727389
vt 0.505996 0.751108
vt 0.475607 0.741389
vt 0.463383 0.700560
vt 0.503953 0.890931
vt 0.545260 0.800364
vt 0.519195 0.880626
vt 0.457540 0.726818
vt 0.469746 0.882744
vt 0.523267 0.705067
vt 0.529593 0.805607
vt 0.470260 0.650388
vt 0.494949 0.662991
vt 0.457406 0.668579
vt 0.507400 0.678193
vt 0.477076 0.639917
vt 0.535893 0.891321
vt 0.522294 0.778147
vt 0.512876 0.946436
vt 0.504789 0.882203
vt 0.534914 0.701521
vt 0.519843 0.933638
vt 0.470519 0.619998
vt 0.502521 0.743808
vt 0.462276 0.648705
vt 0.539371 0.620825
vt 0.538284 0.611406
vt 0.471863 0.704135
vt 0.462188 0.614560
vt 0.461101 0.624070
vt 0.504541 0.954352
vt 0.493308 0.947247
vt 0.493496 0.978252
vt 0.507003 0.955629
vt 0.511415 0.897165
vt 0.504065 0.882233
vt 0.484466 0.966850
vt 0.510165 0.977561
vt 0.501642 0.954473
vt 0.499032 0.955960
vt 0.496920 0.897765
vt 0.518528 0.965439
vt 0.536072 0.596099
vt 0.540372 0.639076
vt 0.462102 0.642321
vt 0.464325 0.599073
vt 0.496529 0.864132
vt 0.504473 0.826367
vt 0.512473 0.863471
vt 0.505197 0.826337
vt 0.543893 0.812968
vt 0.544937 0.714906
vt 0.532135 0.740938
vt 0.522691 0.787506
vt 0.501034 0.701972
vt 0.530782 0.697766
vt 0.459138 0.814846
vt 0.475170 0.737108
vt 0.454236 0.731145
vt 0.470474 0.781843
vt 0.503822 0.751199
vt 0.470976 0.710249
vt 0.504678 0.890901
vt 0.475712 0.882428
vt 0.526274 0.880400
vt 0.456844 0.804030
vt 0.545231 0.723183
vt 0.486783 0.779620
vt 0.467769 0.894145
vt 0.501602 0.678433
vt 0.465092 0.808281
vt 0.529256 0.637754
vt 0.540024 0.665154
vt 0.469638 0.707290
vt 0.496398 0.662931
vt 0.523164 0.648194
vt 0.523424 0.617806
vt 0.533299 0.645761
vt 0.477809 0.935380
vt 0.488751 0.744379
vt 0.500264 0.859070
vt 0.480625 0.913703
vt 0.461069 0.814320
vt 0.465891 0.822011
vt 0.461614 0.859219
vt 0.537376 0.829161
vt 0.535673 0.894911
vt 0.536931 0.849260
vt 0.516508 0.926142
vt 0.484937 0.939316
vt 0.495431 0.834764
vt 0.522314 0.935590
vt 0.455557 0.727073
vt 0.545651 0.782894
vt 0.502336 0.815356
vt 0.509954 0.682324
vt 0.498452 0.853466
vt 0.465032 0.590120
vt 0.546059 0.768669
vt 0.506293 0.665184
vt 0.525087 0.788948
vt 0.541117 0.855614
vt 0.491299 0.644980
vt 0.520482 0.821755
vt 0.513840 0.644559
vt 0.488974 0.641810
vt 0.532634 0.913613
vt 0.520665 0.818901
vt 0.486038 0.654924
vt 0.468773 0.597646
vt 0.489430 0.770817
vt 0.459831 0.832376
vt 0.475932 0.937513
vt 0.496880 0.834704
vt 0.511751 0.938204
vt 0.528942 0.819397
vt 0.508961 0.858709
vt 0.490418 0.927223
vt 0.468807 0.852085
vt 0.464650 0.897856
vt 0.536261 0.856125
vt 0.542963 0.810925
vt 0.525558 0.911841
vt 0.481690 0.683496
vt 0.507409 0.815146
vt 0.541799 0.723498
vt 0.455785 0.786620
vt 0.485276 0.666055
vt 0.456193 0.772394
vt 0.533881 0.587266
vt 0.510773 0.852955
vt 0.459948 0.858979
vt 0.488594 0.823077
vt 0.494272 0.645370
vt 0.502744 0.641239
vt 0.468559 0.791291
vt 0.516665 0.643928
vt 0.468134 0.916287
vt 0.519869 0.769555
vt 0.533998 0.594942
vt 0.505605 0.654113
vt 0.472833 0.820884
vt 0.500236 0.745475
s 1
usemtl dk
f 378/344/627 360/345/628 374/346/629
f 380/347/630 379/348/631 363/349/632
f 360/345/628 381/350/633 361/351/634
f 378/344/627 374/346/629 376/352/635
f 382/353/636 358/354/637 359/354/638
f 362/355/639 380/347/630 363/349/632
f 377/356/640 365/357/641 383/358/642
f 382/353/636 359/354/638 384/353/643
f 385/359/644 382/353/636 384/353/643
f 378/344/627 381/350/633 360/345/628
f 367/360/645 387/361/646 386/362/647
f 385/359/644 384/353/643 388/359/648
f 367/360/649 390/363/650 389/364/651
f 387/361/646 391/365/652 386/362/647
f 387/361/646 392/366/653 391/365/652
f 373/367/654 367/360/645 386/362/647
f 390/363/650 394/368/655 393/369/656
f 390/363/650 395/370/657 389/364/651
f 368/371/658 377/356/640 383/358/642
f 368/371/658 383/358/642 390/363/650
f 390/363/650 396/372/659 394/368/655
f 395/370/657 397/373/660 389/364/651
f 399/374/661 397/373/662 398/375/663
f 393/369/664 400/376/665 395/370/657
f 395/370/657 401/377/666 397/373/660
f 402/378/667 397/373/668 399/374/669
f 396/372/659 390/363/650 383/358/642
f 369/379/670 388/359/648 376/352/671
f 369/379/670 385/359/644 388/359/648
f 405/380/672 404/381/673 403/382/674
f 397/373/668 402/378/667 389/364/675
f 408/368/676 407/381/677 406/383/676
f 408/368/676 409/372/678 407/381/677
f 401/377/679 400/376/680 410/384/681
f 402/378/667 411/385/682 392/366/653
f 395/370/657 400/376/665 401/377/683
f 411/385/684 405/380/672 375/386/685
f 391/365/652 375/386/685 366/387/686
f 405/380/672 372/388/687 375/386/685
f 398/375/688 397/373/689 401/377/690
f 395/370/657 390/363/650 393/369/691
f 411/385/682 375/386/685 392/366/653
f 401/377/692 399/374/693 398/375/694
f 403/382/674 364/389/695 371/390/696
f 364/389/695 363/349/697 371/390/696
f 379/348/631 370/391/698 363/349/632
f 379/348/631 369/379/699 370/391/698
f 393/369/700 412/383/701 405/380/672
f 391/365/652 392/366/653 375/386/685
f 367/360/649 368/371/658 390/363/650
f 387/361/646 402/378/667 392/366/653
f 411/385/684 410/384/702 405/380/672
f 403/382/674 371/390/696 372/388/687
f 373/367/654 386/362/647 391/365/652
f 393/369/703 405/380/672 410/384/702
f 412/383/701 404/381/673 405/380/672
f 373/367/654 391/365/652 366/387/686
f 387/361/646 389/364/704 402/378/667
f 405/380/672 403/382/674 372/388/687
f 399/374/705 401/377/692 410/384/702
f 411/385/684 399/374/705 410/384/702
f 387/361/646 367/360/645 389/364/704
f 410/384/681 400/376/680 393/369/706
f 411/385/707 402/378/667 399/374/669
f 412/383/708 393/369/709 394/368/710
f 377/356/640 360/345/628 365/357/641
f 414/392/711 409/393/678 413/394/712
f 413/394/712 409/393/678 415/358/713
f 416/395/714 407/396/677 414/392/711
f 417/397/715 413/394/712 415/358/713
f 409/393/678 414/392/711 407/396/677
f 419/382/716 416/395/714 418/398/717
f 421/357/718 420/399/719 417/397/715
f 407/396/677 416/395/714 419/382/716
f 423/400/720 420/399/721 422/401/722
f 424/389/723 423/400/724 422/401/725
f 421/357/718 417/397/715 415/358/713
f 420/399/719 421/357/718 422/401/726
f 419/382/716 418/398/717 424/389/727
f 418/398/717 423/400/724 424/389/727
f 436/402/728 435/403/729 431/404/730
f 433/405/731 438/406/732 437/407/733
f 441/408/734 440/409/735 439/410/736
f 442/411/737 436/402/728 431/404/730
f 433/405/731 443/412/738 438/406/732
f 443/412/738 434/413/739 438/406/732
f 441/408/734 432/414/740 440/409/735
f 435/403/729 436/402/728 440/409/735
f 442/411/737 433/405/731 437/407/733
f 442/411/737 437/407/733 436/402/728
f 434/413/739 441/408/734 439/410/736
f 434/413/739 439/410/736 438/406/732
f 432/414/740 435/403/729 440/409/735
f 444/415/741 438/406/732 439/410/736
f 437/407/733 446/416/742 445/417/743
f 448/418/744 439/410/736 447/419/745
f 444/415/741 439/410/736 448/418/746
f 440/409/735 436/402/728 445/417/743
f 447/419/747 440/409/735 445/417/743
f 446/416/742 437/407/733 438/406/732
f 439/410/736 440/409/735 447/419/745
f 436/402/728 437/407/733 445/417/743
f 446/416/742 438/406/732 444/415/748
f 445/420/743 446/416/742 449/421/749
f 447/422/750 445/420/743 450/423/751
f 451/424/752 448/418/746 447/422/753
f 444/425/754 448/418/755 452/426/756
f 449/421/749 450/423/751 445/420/743
f 451/424/757 447/422/750 450/423/751
f 446/416/742 453/427/758 449/421/749
f 454/428/759 444/425/741 452/426/760
f 453/427/758 446/416/742 444/425/741
f 448/418/746 451/424/752 452/426/761
f 453/427/758 444/425/741 454/428/759
f 456/429/762 454/428/763 455/430/764
f 454/428/765 457/431/766 455/430/764
f 458/432/767 453/427/758 456/429/762
f 453/427/758 454/428/763 456/429/762
f 460/433/768 450/423/751 459/434/769
f 451/435/770 450/423/751 460/433/771
f 449/421/749 458/432/767 459/434/769
f 450/423/751 449/421/749 459/434/769
f 452/426/772 451/435/773 460/433/774
f 454/428/775 452/426/776 457/431/777
f 449/421/749 453/427/758 458/432/767
f 452/426/778 460/433/779 457/431/780
f 461/436/781 462/437/782 465/431/783
f 466/438/784 463/439/785 464/440/786
f 469/441/787 468/442/787 467/443/787
f 430/444/788 470/441/789 427/443/790
f 470/441/789 472/445/791 471/446/792
f 470/441/789 430/444/788 472/445/791
f 470/441/789 471/446/792 473/442/793
f 429/447/794 475/443/795 474/442/796
f 478/448/797 477/429/797 476/449/797
f 426/448/798 479/449/799 430/450/788
f 480/430/800 430/450/788 479/449/799
f 480/430/800 472/451/791 430/450/788
f 481/429/801 480/430/800 479/449/799
f 481/429/802 426/448/803 425/452/804
f 462/437/805 482/453/806 484/454/807
f 485/455/808 483/456/809 463/439/785
f 487/457/810 472/445/791 486/458/811
f 466/438/812 487/457/810 485/455/813
f 487/457/810 466/438/812 471/446/792
f 487/457/810 471/446/792 472/445/791
f 484/454/814 488/459/815 465/431/783
f 466/438/784 485/455/808 463/439/785
f 472/451/791 480/430/800 488/459/815
f 486/460/811 472/451/791 488/459/815
f 462/437/782 484/454/816 465/431/783
f 480/430/800 465/431/783 488/459/815
f 494/461/817 493/462/818 489/463/819
f 496/464/820 495/465/821 491/466/822
f 498/467/823 490/468/824 497/469/825
f 499/406/826 494/461/817 489/463/819
f 496/464/820 491/466/822 493/462/818
f 500/470/827 498/467/823 497/469/825
f 499/406/826 501/471/828 490/468/824
f 496/464/820 500/470/827 495/465/821
f 494/461/817 496/464/820 493/462/818
f 499/406/826 489/463/819 501/471/828
f 492/472/829 495/465/821 500/470/827
f 492/472/829 500/470/827 497/469/825
f 498/467/823 499/406/826 490/468/824
f 502/473/830 499/406/826 498/467/823
f 503/474/831 498/467/823 500/470/827
f 504/475/832 496/464/820 494/461/817
f 502/473/833 498/467/823 505/476/834
f 503/474/831 496/464/820 504/475/835
f 503/474/831 500/470/827 496/464/820
f 506/477/836 494/461/817 499/406/826
f 504/475/832 494/461/817 506/477/837
f 503/474/831 505/476/834 498/467/823
f 506/477/838 499/406/826 502/473/839
f 508/478/840 505/476/834 507/479/841
f 508/478/840 502/480/833 505/476/834
f 509/481/842 507/479/841 505/476/834
f 511/482/843 510/483/844 506/477/845
f 503/484/831 512/485/846 509/481/842
f 511/482/847 502/480/833 508/478/840
f 504/486/848 506/477/849 510/483/844
f 512/485/846 504/486/850 510/483/844
f 509/481/842 505/476/834 503/484/831
f 511/482/843 506/477/851 502/480/852
f 512/485/846 503/484/831 504/486/850
f 514/438/853 513/487/854 510/488/855
f 429/489/794 507/479/841 509/481/842
f 466/438/856 516/482/857 515/478/858
f 514/438/859 510/488/844 511/482/843
f 428/490/860 509/481/842 512/485/846
f 428/490/860 429/489/794 509/481/842
f 513/487/861 512/485/846 510/488/862
f 428/490/860 512/485/846 513/487/863
f 474/442/796 508/478/840 507/479/841
f 474/442/796 507/479/841 429/489/794
f 471/446/792 466/438/812 515/478/864
f 471/446/792 515/478/865 473/442/793
f 525/491/866 520/492/867 523/493/868
f 524/494/869 523/493/870 521/495/871
f 526/496/872 518/497/873 527/498/874
f 527/498/875 519/499/876 525/491/866
f 524/494/877 522/500/878 528/501/879
f 528/501/880 517/502/881 526/496/872
f 524/494/869 529/503/882 523/493/870
f 530/504/883 526/496/872 527/498/874
f 524/494/884 528/501/879 529/503/885
f 523/493/886 529/503/887 531/505/888
f 530/504/883 527/498/874 531/505/889
f 527/498/875 525/491/866 531/505/890
f 526/496/872 530/504/891 532/506/892
f 528/501/893 532/506/894 529/503/895
f 525/491/866 523/493/896 531/505/890
f 526/496/872 532/506/897 528/501/898
f 534/507/899 529/503/900 533/508/901
f 534/507/902 531/505/888 529/503/887
f 530/504/883 531/505/889 534/507/903
f 535/509/904 530/504/905 534/507/906
f 529/503/895 536/510/907 533/508/908
f 536/510/909 530/504/891 535/509/910
f 529/503/895 532/506/894 536/510/907
f 536/510/909 532/506/892 530/504/891
f 538/511/911 535/509/912 537/512/913
f 540/513/914 539/514/915 534/515/916
f 540/513/914 534/515/917 533/508/918
f 538/511/919 536/510/909 535/509/920
f 541/516/921 536/510/922 538/511/911
f 533/508/923 536/510/907 541/516/921
f 539/514/924 535/509/925 534/515/926
f 539/514/915 537/512/913 535/509/912
f 543/517/927 542/518/928 538/511/911
f 543/517/927 538/511/911 537/512/913
f 541/516/921 538/511/911 544/519/929
f 544/519/929 538/511/911 542/518/928
f 545/520/930 533/508/931 544/519/929
f 533/508/931 541/516/921 544/519/929
f 545/520/932 546/521/933 540/513/914
f 540/513/914 533/508/918 545/520/932
f 539/514/915 540/513/914 546/521/933
f 547/459/934 539/514/915 546/521/933
f 539/514/915 547/459/934 543/517/927
f 539/514/915 543/517/927 537/512/913
f 554/522/935 552/523/936 555/524/937
f 555/524/938 550/525/939 559/526/940
f 556/527/941 549/528/942 557/529/943
f 557/529/943 551/530/944 554/522/935
f 548/531/945 558/532/946 559/526/947
f 558/532/946 553/533/948 556/527/941
f 555/524/949 560/534/950 554/522/935
f 561/535/951 558/532/952 556/527/941
f 562/536/953 560/534/954 555/524/955
f 560/534/956 563/537/957 554/522/935
f 561/535/951 556/527/941 557/529/943
f 561/535/958 557/529/943 563/537/959
f 561/535/960 562/536/961 558/532/962
f 562/536/963 555/524/938 559/526/940
f 557/529/943 554/522/935 563/537/959
f 558/532/946 562/536/964 559/526/947
f 563/537/957 560/534/956 564/538/965
f 564/538/966 560/534/954 562/536/953
f 565/539/967 563/537/957 564/538/965
f 566/540/968 564/538/966 562/536/953
f 567/541/969 563/537/970 565/539/971
f 567/541/972 561/535/958 563/537/959
f 562/536/961 561/535/960 567/541/973
f 566/540/974 562/536/975 567/541/976
f 565/539/977 569/542/978 568/543/979
f 567/544/980 565/539/981 568/543/982
f 570/545/983 564/538/984 566/540/985
f 571/546/986 564/538/987 570/545/983
f 565/539/988 564/538/989 571/546/990
f 566/540/991 567/544/992 572/547/993
f 567/544/994 568/543/979 572/547/993
f 569/542/978 565/539/977 571/546/986
f 569/542/978 573/548/995 568/543/979
f 573/548/995 574/457/996 568/543/979
f 575/549/997 568/543/979 574/457/996
f 575/549/997 572/547/993 568/543/979
f 576/550/998 566/540/991 572/547/993
f 572/547/993 575/549/997 576/550/998
f 577/551/999 570/545/983 566/540/1000
f 577/551/999 566/540/1000 576/550/1001
f 578/552/1002 571/546/986 577/551/999
f 577/551/999 571/546/986 570/545/983
f 569/542/978 571/546/986 573/548/995
f 571/546/986 578/552/1002 573/548/995
f 575/549/997 574/457/996 579/458/1003
f 484/553/1004 486/553/1005 485/553/1006
f 580/460/1007 547/459/934 546/521/933
